<svg width="35" height="35" viewBox="0 0 35 35" fill="none" xmlns="http://www.w3.org/2000/svg">
<g id="Sunny 2">
<g id="Sunny 2 Icon Container">
<g id="Sunny 2 Icon">
<path id="Sunny 2 Icon Image" d="M17.5 8.81836C12.7148 8.81836 8.81836 12.7148 8.81836 17.5C8.81836 22.2852 12.7148 26.1816 17.5 26.1816C22.2852 26.1816 26.1816 22.2852 26.1816 17.5C26.1816 12.7148 22.2852 8.81836 17.5 8.81836ZM17.5 23.707C14.0684 23.707 11.293 20.9316 11.293 17.5C11.293 14.0684 14.0684 11.293 17.5 11.293C20.9316 11.293 23.707 14.0684 23.707 17.5C23.707 20.9316 20.9316 23.707 17.5 23.707ZM17.5 6.33008C18.1836 6.33008 18.7441 5.76953 18.7441 5.08594V2.61133C18.7441 1.92773 18.1973 1.36719 17.5 1.36719C16.8027 1.36719 16.2559 1.92773 16.2559 2.61133V5.08594C16.2559 5.76953 16.8164 6.33008 17.5 6.33008ZM17.5 28.6699C16.8164 28.6699 16.2559 29.2305 16.2559 29.9141V32.4023C16.2559 33.0859 16.8027 33.6465 17.5 33.6465C18.1973 33.6465 18.7441 33.0859 18.7441 32.4023V29.9141C18.7441 29.2305 18.1836 28.6699 17.5 28.6699ZM27.1523 9.59766L28.9023 7.84766C29.3809 7.36914 29.3809 6.57617 28.9023 6.09766C28.4238 5.61914 27.6309 5.61914 27.1523 6.09766L25.4023 7.84766C24.9238 8.32617 24.9238 9.11914 25.4023 9.59766C25.8809 10.0898 26.6602 10.0898 27.1523 9.59766ZM7.84766 25.4023L6.09766 27.1523C5.61914 27.6309 5.61914 28.4238 6.09766 28.9023C6.57617 29.3809 7.36914 29.3809 7.84766 28.9023L9.59766 27.1523C10.0762 26.6602 10.0762 25.8809 9.59766 25.4023C9.11914 24.9102 8.32617 24.9102 7.84766 25.4023ZM6.33008 17.5C6.33008 16.8164 5.76953 16.2559 5.08594 16.2559H2.61133C1.92773 16.2559 1.36719 16.8027 1.36719 17.5C1.36719 18.1973 1.92773 18.7441 2.61133 18.7441H5.08594C5.76953 18.7441 6.33008 18.1836 6.33008 17.5ZM32.3887 16.2559H29.9004C29.2168 16.2559 28.6562 16.8164 28.6562 17.5C28.6562 18.1836 29.2168 18.7441 29.9004 18.7441H32.3887C33.0723 18.7441 33.6328 18.1973 33.6328 17.5C33.6328 16.8027 33.0723 16.2559 32.3887 16.2559ZM7.84766 9.59766C8.32617 10.0762 9.11914 10.0762 9.59766 9.59766C10.0762 9.11914 10.0762 8.32617 9.59766 7.84766L7.84766 6.09766C7.36914 5.61914 6.57617 5.61914 6.09766 6.09766C5.61914 6.57617 5.61914 7.36914 6.09766 7.84766L7.84766 9.59766ZM27.1523 25.3887C26.6602 24.9102 25.8809 24.9102 25.4023 25.3887C24.9238 25.8672 24.9102 26.6602 25.4023 27.1387L27.1523 28.8887C27.6309 29.3672 28.4238 29.3672 28.9023 28.8887C29.3809 28.4102 29.3809 27.6172 28.9023 27.1387L27.1523 25.3887Z" fill="#E4E2DD"/>
</g>
</g>
</g>
</svg>
