<svg xmlns="http://www.w3.org/2000/svg" xmlns:xlink="http://www.w3.org/1999/xlink" zoomAndPan="magnify" preserveAspectRatio="xMidYMid meet" version="1.0" viewBox="-37.5 -9.6 450 115.2"><defs><g/></defs><rect x="-37.5" width="450" fill="#ffffff" y="-9.6" height="115.199999" fill-opacity="1"/><rect x="-37.5" width="450" fill="#ffffff" y="-9.6" height="115.199999" fill-opacity="1"/><g fill="#323232" fill-opacity="1"><g transform="translate(19.136063, 44.37)"><g><path d="M 24 0 L 9.890625 0 L 0.140625 -32.40625 L 0.140625 -32.640625 L 10.3125 -32.640625 L 17.765625 -6.671875 L 18.046875 -6.671875 L 23.90625 -26.25 L 34.84375 -26.25 L 40.5625 -6.671875 L 40.84375 -6.671875 L 48.578125 -32.640625 L 58.421875 -32.640625 L 58.421875 -32.40625 L 48.140625 0 L 34.3125 0 L 29.328125 -17.046875 L 29.09375 -17.046875 Z M 24 0 "/></g></g></g><g fill="#323232" fill-opacity="1"><g transform="translate(76.639961, 44.37)"><g><path d="M 35.8125 -20.78125 L 35.8125 -32.640625 L 45.640625 -32.640625 L 45.640625 0 L 35.8125 0 L 35.8125 -12.4375 L 15.125 -12.4375 L 15.125 0 L 5.28125 0 L 5.28125 -32.640625 L 15.125 -32.640625 L 15.125 -20.78125 Z M 35.8125 -20.78125 "/></g></g></g><g fill="#323232" fill-opacity="1"><g transform="translate(126.511874, 44.37)"><g><path d="M 43.109375 0 L 5.28125 0 L 5.28125 -32.640625 L 42.390625 -32.640625 L 42.390625 -24.671875 L 15.125 -24.671875 L 15.125 -19.6875 L 34.984375 -19.6875 L 34.984375 -12.953125 L 15.125 -12.953125 L 15.125 -7.96875 L 43.109375 -7.96875 Z M 43.109375 0 "/></g></g></g><g fill="#323232" fill-opacity="1"><g transform="translate(171.439786, 44.37)"><g><path d="M 26.109375 0 L 16.265625 0 L 16.265625 -24.34375 L 0.390625 -24.34375 L 0.390625 -32.640625 L 42 -32.640625 L 42 -24.34375 L 26.109375 -24.34375 Z M 26.109375 0 "/></g></g></g><g fill="#323232" fill-opacity="1"><g transform="translate(212.767706, 44.37)"><g><path d="M 35.8125 -20.78125 L 35.8125 -32.640625 L 45.640625 -32.640625 L 45.640625 0 L 35.8125 0 L 35.8125 -12.4375 L 15.125 -12.4375 L 15.125 0 L 5.28125 0 L 5.28125 -32.640625 L 15.125 -32.640625 L 15.125 -20.78125 Z M 35.8125 -20.78125 "/></g></g></g><g fill="#323232" fill-opacity="1"><g transform="translate(262.639614, 44.37)"><g><path d="M 43.109375 0 L 5.28125 0 L 5.28125 -32.640625 L 42.390625 -32.640625 L 42.390625 -24.671875 L 15.125 -24.671875 L 15.125 -19.6875 L 34.984375 -19.6875 L 34.984375 -12.953125 L 15.125 -12.953125 L 15.125 -7.96875 L 43.109375 -7.96875 Z M 43.109375 0 "/></g></g></g><g fill="#323232" fill-opacity="1"><g transform="translate(307.567536, 44.37)"><g><path d="M 45.75 -0.234375 L 45.75 0 L 33.078125 0 L 21.125 -11.328125 L 15.125 -11.328125 L 15.125 0 L 5.28125 0 L 5.28125 -32.640625 L 31.78125 -32.640625 C 36.414062 -32.640625 39.820312 -31.75 42 -29.96875 C 44.175781 -28.195312 45.265625 -25.535156 45.265625 -21.984375 C 45.265625 -18.691406 44.328125 -16.15625 42.453125 -14.375 C 40.578125 -12.601562 37.660156 -11.601562 33.703125 -11.375 Z M 34.890625 -25.0625 L 15.125 -25.0625 L 15.125 -18.1875 L 34.890625 -18.1875 Z M 34.890625 -25.0625 "/></g></g></g><g fill="#323232" fill-opacity="1"><g transform="translate(8.964189, 83.369998)"><g><path d="M 25.25 0.765625 C 16.863281 0.765625 9.535156 0.394531 3.265625 -0.34375 L 2.921875 -9.078125 C 9.234375 -8.242188 14.257812 -7.695312 18 -7.4375 C 21.738281 -7.21875 26.15625 -7.023438 31.25 -6.859375 L 31.25 -12.140625 L 13.828125 -13.484375 C 9.921875 -13.804688 7.039062 -14.757812 5.1875 -16.34375 C 3.332031 -17.925781 2.40625 -20.238281 2.40625 -23.28125 C 2.40625 -26.769531 3.664062 -29.328125 6.1875 -30.953125 C 8.71875 -32.585938 12.703125 -33.40625 18.140625 -33.40625 C 23.835938 -33.40625 30.894531 -33.070312 39.3125 -32.40625 L 39.59375 -23.65625 C 33.425781 -24.488281 27.8125 -25.066406 22.75 -25.390625 C 19.351562 -25.617188 16.007812 -25.75 12.71875 -25.78125 L 12.71875 -20.640625 L 29.234375 -19.34375 C 33.484375 -18.988281 36.597656 -18.023438 38.578125 -16.453125 C 40.566406 -14.890625 41.5625 -12.523438 41.5625 -9.359375 C 41.5625 -5.929688 40.304688 -3.382812 37.796875 -1.71875 C 35.285156 -0.0625 31.101562 0.765625 25.25 0.765625 Z M 25.25 0.765625 "/></g></g></g><g fill="#323232" fill-opacity="1"><g transform="translate(51.396113, 83.369998)"><g><path d="M 24 0 L 9.890625 0 L 0.140625 -32.40625 L 0.140625 -32.640625 L 10.3125 -32.640625 L 17.765625 -6.671875 L 18.046875 -6.671875 L 23.90625 -26.25 L 34.84375 -26.25 L 40.5625 -6.671875 L 40.84375 -6.671875 L 48.578125 -32.640625 L 58.421875 -32.640625 L 58.421875 -32.40625 L 48.140625 0 L 34.3125 0 L 29.328125 -17.046875 L 29.09375 -17.046875 Z M 24 0 "/></g></g></g><g fill="#323232" fill-opacity="1"><g transform="translate(108.900016, 83.369998)"><g><path d="M 43.109375 0 L 5.28125 0 L 5.28125 -32.640625 L 42.390625 -32.640625 L 42.390625 -24.671875 L 15.125 -24.671875 L 15.125 -19.6875 L 34.984375 -19.6875 L 34.984375 -12.953125 L 15.125 -12.953125 L 15.125 -7.96875 L 43.109375 -7.96875 Z M 43.109375 0 "/></g></g></g><g fill="#323232" fill-opacity="1"><g transform="translate(153.827927, 83.369998)"><g><path d="M 15.453125 -32.640625 L 29.71875 -32.640625 L 45.40625 -0.234375 L 45.40625 0 L 34.703125 0 L 31.734375 -6.4375 L 13.296875 -6.4375 L 10.3125 0 L -0.140625 0 L -0.140625 -0.234375 Z M 22.421875 -25.96875 L 16.703125 -13.6875 L 28.375 -13.6875 L 22.65625 -25.96875 Z M 22.421875 -25.96875 "/></g></g></g><g fill="#323232" fill-opacity="1"><g transform="translate(198.083842, 83.369998)"><g><path d="M 26.109375 0 L 16.265625 0 L 16.265625 -24.34375 L 0.390625 -24.34375 L 0.390625 -32.640625 L 42 -32.640625 L 42 -24.34375 L 26.109375 -24.34375 Z M 26.109375 0 "/></g></g></g><g fill="#323232" fill-opacity="1"><g transform="translate(239.411773, 83.369998)"><g><path d="M 43.109375 0 L 5.28125 0 L 5.28125 -32.640625 L 42.390625 -32.640625 L 42.390625 -24.671875 L 15.125 -24.671875 L 15.125 -19.6875 L 34.984375 -19.6875 L 34.984375 -12.953125 L 15.125 -12.953125 L 15.125 -7.96875 L 43.109375 -7.96875 Z M 43.109375 0 "/></g></g></g><g fill="#323232" fill-opacity="1"><g transform="translate(284.339696, 83.369998)"><g><path d="M 45.75 -0.234375 L 45.75 0 L 33.078125 0 L 21.125 -11.328125 L 15.125 -11.328125 L 15.125 0 L 5.28125 0 L 5.28125 -32.640625 L 31.78125 -32.640625 C 36.414062 -32.640625 39.820312 -31.75 42 -29.96875 C 44.175781 -28.195312 45.265625 -25.535156 45.265625 -21.984375 C 45.265625 -18.691406 44.328125 -16.15625 42.453125 -14.375 C 40.578125 -12.601562 37.660156 -11.601562 33.703125 -11.375 Z M 34.890625 -25.0625 L 15.125 -25.0625 L 15.125 -18.1875 L 34.890625 -18.1875 Z M 34.890625 -25.0625 "/></g></g></g><g fill="#323232" fill-opacity="1"><g transform="translate(331.571612, 83.369998)"><g><path d="M 20.6875 -34.5625 C 25.132812 -34.5625 28.378906 -33.757812 30.421875 -32.15625 C 32.472656 -30.5625 33.5 -28.195312 33.5 -25.0625 C 33.5 -22.050781 32.617188 -19.757812 30.859375 -18.1875 C 29.097656 -16.625 26.507812 -15.679688 23.09375 -15.359375 L 19.203125 -15.03125 L 19.203125 -10.890625 L 10.84375 -10.890625 L 10.84375 -20.453125 L 24.1875 -21.5 L 24.1875 -27.3125 C 21.25 -27.3125 17.601562 -27.132812 13.25 -26.78125 C 8.894531 -26.425781 4.71875 -25.976562 0.71875 -25.4375 L 1.0625 -33.75 C 7.75 -34.289062 14.289062 -34.5625 20.6875 -34.5625 Z M 19.921875 0 L 10.125 0 L 10.125 -6.578125 L 19.921875 -6.578125 Z M 19.921875 0 "/></g></g></g></svg>