<svg xmlns="http://www.w3.org/2000/svg" xmlns:xlink="http://www.w3.org/1999/xlink" width="160" zoomAndPan="magnify" viewBox="0 0 120 30.000001" height="40" preserveAspectRatio="xMidYMid meet" version="1.0"><defs><g/></defs><g fill="#00c6ba" fill-opacity="1"><g transform="translate(4.16677, 22.016099)"><g><path d="M 0.96875 0 L 17.5625 0 C 20.851562 0 23.03125 -2.226562 23.03125 -5.152344 L 23.03125 -11.78125 C 23.03125 -14.707031 20.851562 -16.933594 17.5625 -16.933594 L 0.96875 -16.933594 Z M 5.007812 -3.675781 L 5.007812 -13.257812 L 17.5625 -13.257812 C 18.335938 -13.257812 18.988281 -12.628906 18.988281 -11.78125 L 18.988281 -5.152344 C 18.988281 -4.304688 18.335938 -3.675781 17.5625 -3.675781 Z M 5.007812 -3.675781 "/></g></g></g><g fill="#00c6ba" fill-opacity="1"><g transform="translate(28.16297, 22.016099)"><g><path d="M 1.839844 -11.78125 L 0.726562 0 L 4.765625 0 L 5.394531 -6.652344 L 18.121094 -6.652344 L 18.75 0 L 22.789062 0 L 21.675781 -11.78125 C 21.410156 -14.707031 19.523438 -16.933594 16.230469 -16.933594 L 7.28125 -16.933594 C 3.992188 -16.933594 2.105469 -14.707031 1.839844 -11.78125 Z M 5.734375 -10.328125 L 5.878906 -11.78125 C 5.949219 -12.628906 6.507812 -13.257812 7.28125 -13.257812 L 16.230469 -13.257812 C 17.007812 -13.257812 17.5625 -12.628906 17.636719 -11.78125 L 17.78125 -10.328125 Z M 5.734375 -10.328125 "/></g></g></g><g fill="#00c6ba" fill-opacity="1"><g transform="translate(51.675373, 22.016099)"><g><path d="M 7.28125 0 L 16.230469 0 C 19.523438 0 21.410156 -2.226562 21.675781 -5.152344 L 22.789062 -16.933594 L 18.75 -16.933594 L 17.636719 -5.152344 C 17.5625 -4.304688 17.007812 -3.675781 16.230469 -3.675781 L 7.28125 -3.675781 C 6.507812 -3.675781 5.949219 -4.304688 5.878906 -5.152344 L 4.765625 -16.933594 L 0.726562 -16.933594 L 1.839844 -5.152344 C 2.105469 -2.226562 3.992188 0 7.28125 0 Z M 7.28125 0 "/></g></g></g><g fill="#00c6ba" fill-opacity="1"><g transform="translate(75.187777, 22.016099)"><g><path d="M 0.96875 0 L 15.675781 0 L 15.675781 -3.675781 L 10.355469 -3.675781 L 10.355469 -13.257812 L 15.675781 -13.257812 L 15.675781 -16.933594 L 0.96875 -16.933594 L 0.96875 -13.257812 L 6.289062 -13.257812 L 6.289062 -3.675781 L 0.96875 -3.675781 Z M 0.96875 0 "/></g></g></g><g fill="#00c6ba" fill-opacity="1"><g transform="translate(91.830303, 22.016099)"><g><path d="M 0.96875 0 L 17.5625 0 C 20.851562 0 23.03125 -2.226562 23.03125 -5.152344 C 23.03125 -8.105469 20.851562 -10.328125 17.5625 -10.328125 L 6.433594 -10.328125 C 5.660156 -10.328125 5.007812 -10.933594 5.007812 -11.78125 C 5.007812 -12.628906 5.660156 -13.257812 6.433594 -13.257812 L 23.03125 -13.257812 L 23.03125 -16.933594 L 6.433594 -16.933594 C 3.144531 -16.933594 0.96875 -14.707031 0.96875 -11.78125 C 0.96875 -8.878906 3.144531 -6.652344 6.433594 -6.652344 L 17.5625 -6.652344 C 18.335938 -6.652344 18.988281 -6.023438 18.988281 -5.152344 C 18.988281 -4.304688 18.335938 -3.675781 17.5625 -3.675781 L 0.96875 -3.675781 Z M 0.96875 0 "/></g></g></g></svg>