<svg width="35" height="36" viewBox="0 0 35 36" fill="none" xmlns="http://www.w3.org/2000/svg">
<g id="Down Arrow Container">
<g id="Down Arrow Content">
<g id="Down Arrow Content_2">
<g id="Down Arrow Content_3">
<path id="Down Arrow Icon" d="M16.4199 1.9082C13.5078 2.08594 10.6504 3.09766 8.23047 4.7793C5.97461 6.36523 4.26563 8.36133 3.00782 10.8906C1.87305 13.1875 1.36719 15.3887 1.36719 18.041C1.35352 21.623 2.46094 24.9043 4.63477 27.8027C5.27735 28.6504 6.83594 30.2227 7.6836 30.8516C9.85742 32.4785 12.2363 33.5039 14.7656 33.9277C17.0352 34.3105 19.4277 34.2012 21.5742 33.627C23.8301 33.0254 26.0449 31.8906 27.7676 30.4551C29.5313 28.9785 30.8574 27.3105 31.8828 25.2734C32.6895 23.6875 33.1816 22.1836 33.4414 20.4746C34.1113 16.1133 33.0176 11.8203 30.3242 8.21094C29.668 7.34961 28.1094 5.79101 27.2207 5.12109C25.1152 3.54883 22.668 2.50976 20.1113 2.07226C19.5371 1.97656 17.6094 1.8125 17.3359 1.83984C17.2813 1.85351 16.8711 1.88086 16.4199 1.9082ZM19.5781 4.17773C22.5449 4.62891 25.1973 5.96875 27.3711 8.12891C32.3066 13.0371 32.8672 20.8027 28.6973 26.3945C26.3457 29.5391 22.75 31.5625 18.7988 31.9453C17.1582 32.1094 15.1074 31.9043 13.5078 31.4121C6.5625 29.3203 2.33789 22.252 3.80078 15.1836C5.04492 9.19531 10.0625 4.68359 16.1875 4.05469C16.9805 3.98633 18.7031 4.04101 19.5781 4.17773Z" fill="#E4E2DD"/>
<path id="Down Arrow Icon_2" d="M9.91213 14.2813C9.3926 14.5137 9.17385 15.1289 9.40627 15.6484C9.50197 15.8672 10.5 16.9063 13.1797 19.5723C17.1856 23.5645 17.0762 23.4688 17.6914 23.291C17.9375 23.2227 18.4571 22.7168 21.6699 19.5039C24.9512 16.2227 25.375 15.7715 25.4434 15.5117C25.6485 14.7188 24.9102 13.9805 24.1446 14.1992C23.8985 14.2676 23.4199 14.7324 20.6172 17.5078L17.3906 20.7344L14.1914 17.5352C11.0196 14.3633 10.7598 14.1309 10.336 14.1309C10.2676 14.1445 10.0762 14.2129 9.91213 14.2813Z" fill="#E4E2DD"/>
</g>
</g>
</g>
</g>
</svg>
