<svg width="320" height="450" viewBox="0 0 320 450" fill="none" xmlns="http://www.w3.org/2000/svg">
<g clip-path="url(#clip0_22_632)">
<rect width="320" height="450" fill="url(#paint0_linear_22_632)" fill-opacity="0.2"/>
<path d="M320 0H0V450H320V0Z" fill="url(#paint1_linear_22_632)" fill-opacity="0.2"/>
<path d="M320 0H0V450H320V0Z" stroke="#00C6BA"/>
<g opacity="0.2">
<path d="M249.386 176.923L213.904 117.459C213.549 116.864 212.918 116.786 212.495 117.285C212.072 117.785 212.017 118.672 212.372 119.267L247.854 178.731C248.209 179.326 248.84 179.403 249.263 178.904C249.686 178.405 249.741 177.518 249.386 176.923Z" fill="url(#paint2_linear_22_632)"/>
<path opacity="0.5" d="M144.327 482.843L73.363 363.914C73.008 363.319 72.3772 363.242 71.9542 363.741C71.5311 364.24 71.4759 365.127 71.8309 365.722L142.795 484.65C143.15 485.245 143.78 485.323 144.204 484.824C144.627 484.325 144.682 483.438 144.327 482.843Z" fill="url(#paint3_linear_22_632)"/>
<path opacity="0.89" d="M205.087 457.333L189.403 431.048C189.048 430.453 188.417 430.376 187.994 430.875C187.571 431.374 187.516 432.261 187.871 432.856L203.555 459.141C203.91 459.736 204.541 459.814 204.964 459.314C205.387 458.815 205.442 457.928 205.087 457.333Z" fill="url(#paint4_linear_22_632)"/>
<path opacity="0.59" d="M231.825 356.402L133.864 192.229C133.509 191.634 132.879 191.557 132.456 192.056C132.033 192.555 131.977 193.442 132.332 194.037L230.293 358.21C230.648 358.805 231.279 358.883 231.702 358.383C232.125 357.884 232.18 356.997 231.825 356.402Z" fill="url(#paint5_linear_22_632)"/>
<path opacity="0.16" d="M109.383 323.776L23.5068 179.856C23.1518 179.261 22.521 179.183 22.098 179.682C21.6749 180.181 21.6197 181.068 21.9747 181.663L107.851 325.584C108.206 326.179 108.837 326.257 109.26 325.757C109.683 325.258 109.738 324.371 109.383 323.776Z" fill="url(#paint6_linear_22_632)"/>
<path opacity="0.95" d="M304.069 584.477L219.221 442.28C218.866 441.685 218.235 441.607 217.812 442.106C217.389 442.606 217.334 443.493 217.689 444.088L302.537 586.285C302.892 586.88 303.523 586.957 303.946 586.458C304.369 585.959 304.424 585.072 304.069 584.477Z" fill="url(#paint7_linear_22_632)"/>
<path opacity="0.73" d="M97.7979 421.16L19.8921 290.597C19.5371 290.002 18.9063 289.924 18.4832 290.424C18.0601 290.923 18.005 291.81 18.36 292.405L96.2658 422.967C96.6208 423.562 97.2516 423.64 97.6747 423.141C98.0978 422.642 98.1529 421.755 97.7979 421.16Z" fill="url(#paint8_linear_22_632)"/>
<path opacity="0.53" d="M257.014 379.1L215.876 310.156C215.521 309.561 214.89 309.484 214.467 309.983C214.044 310.482 213.989 311.369 214.344 311.964L255.482 380.908C255.837 381.503 256.468 381.581 256.891 381.082C257.314 380.582 257.369 379.695 257.014 379.1Z" fill="url(#paint9_linear_22_632)"/>
<path opacity="0.34" d="M258.741 471.101L195.748 365.531C195.393 364.936 194.762 364.858 194.339 365.357C193.916 365.857 193.861 366.744 194.216 367.338L257.209 472.909C257.564 473.504 258.195 473.581 258.618 473.082C259.041 472.583 259.096 471.696 258.741 471.101Z" fill="url(#paint10_linear_22_632)"/>
<path opacity="0.18" d="M279.47 445.238L219.82 345.269C219.465 344.674 218.834 344.596 218.411 345.096C217.988 345.595 217.932 346.482 218.287 347.077L277.938 447.046C278.293 447.64 278.924 447.718 279.347 447.219C279.77 446.72 279.825 445.833 279.47 445.238Z" fill="url(#paint11_linear_22_632)"/>
<path opacity="0.5" d="M43.342 479.49L-8.85233 392.017C-9.20733 391.422 -9.83809 391.344 -10.2612 391.844C-10.6842 392.343 -10.7394 393.23 -10.3844 393.825L41.8099 481.298C42.1649 481.892 42.7957 481.97 43.2188 481.471C43.6419 480.972 43.697 480.085 43.342 479.49Z" fill="url(#paint12_linear_22_632)"/>
<path opacity="0.15" d="M146.6 493.372L104.69 423.135C104.335 422.54 103.704 422.462 103.281 422.962C102.858 423.461 102.803 424.348 103.158 424.943L145.068 495.18C145.423 495.774 146.054 495.852 146.477 495.353C146.9 494.854 146.955 493.967 146.6 493.372Z" fill="url(#paint13_linear_22_632)"/>
<path opacity="0.95" d="M315.43 285.544L296.66 254.088C296.305 253.493 295.674 253.415 295.251 253.915C294.828 254.414 294.773 255.301 295.128 255.896L313.897 287.352C314.252 287.946 314.883 288.024 315.306 287.525C315.729 287.026 315.785 286.139 315.43 285.544Z" fill="url(#paint14_linear_22_632)"/>
<path opacity="0.47" d="M89.1821 246.608L-14.6924 72.524C-15.0474 71.9291 -15.6782 71.8515 -16.1012 72.3507C-16.5243 72.8499 -16.5795 73.7369 -16.2245 74.3319L87.65 248.415C88.005 249.01 88.6357 249.088 89.0588 248.589C89.4819 248.09 89.5371 247.203 89.1821 246.608Z" fill="url(#paint15_linear_22_632)"/>
<path opacity="0.48" d="M355.226 249.886L260.864 91.7457C260.509 91.1508 259.879 91.0732 259.456 91.5724C259.032 92.0716 258.977 92.9586 259.332 93.5535L353.693 251.694C354.048 252.289 354.679 252.366 355.102 251.867C355.525 251.368 355.581 250.481 355.226 249.886Z" fill="url(#paint16_linear_22_632)"/>
<path opacity="0.53" d="M327.914 335.201L292.176 275.306C291.821 274.711 291.19 274.633 290.767 275.132C290.344 275.632 290.288 276.519 290.643 277.114L326.382 337.009C326.737 337.604 327.368 337.681 327.791 337.182C328.214 336.683 328.269 335.796 327.914 335.201Z" fill="url(#paint17_linear_22_632)"/>
<path opacity="0.31" d="M309.644 249.664L288.046 213.468C287.691 212.873 287.06 212.795 286.637 213.295C286.214 213.794 286.159 214.681 286.514 215.276L308.112 251.471C308.467 252.066 309.097 252.144 309.521 251.645C309.944 251.146 309.999 250.259 309.644 249.664Z" fill="url(#paint18_linear_22_632)"/>
<path opacity="0.5" d="M236.684 245.719L163.406 122.913C163.051 122.318 162.42 122.24 161.997 122.739C161.574 123.238 161.519 124.125 161.874 124.72L235.152 247.527C235.507 248.122 236.137 248.199 236.561 247.7C236.984 247.201 237.039 246.314 236.684 245.719Z" fill="url(#paint19_linear_22_632)"/>
<path opacity="0.35" d="M197.715 430.369L179.974 400.637C179.619 400.042 178.989 399.965 178.565 400.464C178.142 400.963 178.087 401.85 178.442 402.445L196.183 432.177C196.538 432.772 197.169 432.85 197.592 432.351C198.015 431.851 198.07 430.964 197.715 430.369Z" fill="url(#paint20_linear_22_632)"/>
<path opacity="0.38" d="M205.185 256.284L158.905 178.722C158.55 178.127 157.919 178.05 157.496 178.549C157.073 179.048 157.017 179.935 157.372 180.53L203.653 258.092C204.008 258.687 204.639 258.765 205.062 258.265C205.485 257.766 205.54 256.879 205.185 256.284Z" fill="url(#paint21_linear_22_632)"/>
<path opacity="0.54" d="M334.455 550.966L256.035 419.541C255.68 418.946 255.049 418.869 254.626 419.368C254.203 419.867 254.148 420.754 254.503 421.349L332.923 552.773C333.278 553.368 333.909 553.446 334.332 552.947C334.755 552.448 334.81 551.561 334.455 550.966Z" fill="url(#paint22_linear_22_632)"/>
<path opacity="0.12" d="M192.241 302.783L116.649 176.098C116.294 175.504 115.663 175.426 115.24 175.925C114.817 176.424 114.762 177.311 115.117 177.906L190.709 304.591C191.064 305.186 191.695 305.263 192.118 304.764C192.541 304.265 192.596 303.378 192.241 302.783Z" fill="url(#paint23_linear_22_632)"/>
<path opacity="0.28" d="M49.2565 267.523L-0.366734 184.359C-0.721736 183.764 -1.35249 183.686 -1.77557 184.186C-2.19864 184.685 -2.25382 185.572 -1.89882 186.167L47.7244 269.331C48.0794 269.925 48.7101 270.003 49.1332 269.504C49.5563 269.005 49.6115 268.118 49.2565 267.523Z" fill="url(#paint24_linear_22_632)"/>
<path opacity="0.4" d="M316.13 451.098L299.16 422.659C298.805 422.064 298.174 421.986 297.751 422.485C297.328 422.984 297.273 423.871 297.628 424.466L314.598 452.906C314.953 453.501 315.583 453.578 316.006 453.079C316.43 452.58 316.485 451.693 316.13 451.098Z" fill="url(#paint25_linear_22_632)"/>
<path opacity="0.76" d="M98.1569 427.248L53.9331 353.133C53.5781 352.538 52.9473 352.461 52.5242 352.96C52.1012 353.459 52.046 354.346 52.401 354.941L96.6248 429.056C96.9798 429.651 97.6105 429.729 98.0336 429.229C98.4567 428.73 98.5119 427.843 98.1569 427.248Z" fill="url(#paint26_linear_22_632)"/>
<path opacity="0.32" d="M295.985 267.224L235.305 165.532C234.95 164.937 234.32 164.86 233.897 165.359C233.473 165.858 233.418 166.745 233.773 167.34L294.452 269.032C294.807 269.627 295.438 269.705 295.861 269.206C296.284 268.706 296.34 267.819 295.985 267.224Z" fill="url(#paint27_linear_22_632)"/>
<path opacity="0.2" d="M167.622 307.554L8.46774 40.8272C8.11274 40.2323 7.48198 40.1547 7.05891 40.6539C6.63583 41.1531 6.58065 42.0401 6.93565 42.6351L166.09 309.362C166.445 309.957 167.076 310.035 167.499 309.536C167.922 309.036 167.977 308.149 167.622 307.554Z" fill="url(#paint28_linear_22_632)"/>
<path opacity="0.15" d="M142.185 266.051L92.3049 182.456C91.9499 181.861 91.3191 181.783 90.8961 182.283C90.473 182.782 90.4178 183.669 90.7728 184.264L140.653 267.858C141.008 268.453 141.639 268.531 142.062 268.032C142.485 267.533 142.54 266.646 142.185 266.051Z" fill="url(#paint29_linear_22_632)"/>
<path opacity="0.8" d="M261.172 313.645L235.718 270.986C235.363 270.391 234.732 270.314 234.309 270.813C233.886 271.312 233.831 272.199 234.186 272.794L259.64 315.453C259.995 316.048 260.626 316.126 261.049 315.627C261.472 315.127 261.527 314.24 261.172 313.645Z" fill="url(#paint30_linear_22_632)"/>
<path opacity="0.3" d="M320.754 230.21L229.736 77.6715C229.381 77.0765 228.75 76.9989 228.327 77.4982C227.904 77.9974 227.848 78.8844 228.203 79.4793L319.222 232.018C319.577 232.613 320.208 232.69 320.631 232.191C321.054 231.692 321.109 230.805 320.754 230.21Z" fill="url(#paint31_linear_22_632)"/>
<path opacity="0.15" d="M144.501 364.486L118.789 321.396C118.434 320.801 117.804 320.723 117.38 321.223C116.957 321.722 116.902 322.609 117.257 323.204L142.969 366.294C143.324 366.889 143.954 366.966 144.378 366.467C144.801 365.968 144.856 365.081 144.501 364.486Z" fill="url(#paint32_linear_22_632)"/>
<path opacity="0.67" d="M257.711 397.883L167.978 247.499C167.623 246.904 166.992 246.826 166.569 247.325C166.146 247.825 166.091 248.712 166.446 249.307L256.179 399.691C256.534 400.286 257.165 400.363 257.588 399.864C258.011 399.365 258.066 398.478 257.711 397.883Z" fill="url(#paint33_linear_22_632)"/>
<path opacity="0.35" d="M116.073 381.276L103.217 359.731C102.862 359.136 102.231 359.058 101.808 359.557C101.385 360.057 101.33 360.944 101.685 361.539L114.541 383.084C114.896 383.679 115.526 383.756 115.95 383.257C116.373 382.758 116.428 381.871 116.073 381.276Z" fill="url(#paint34_linear_22_632)"/>
<path opacity="0.74" d="M150.501 184.486L124.789 141.396C124.434 140.801 123.804 140.723 123.38 141.223C122.957 141.722 122.902 142.609 123.257 143.204L148.969 186.294C149.324 186.889 149.954 186.966 150.378 186.467C150.801 185.968 150.856 185.081 150.501 184.486Z" fill="url(#paint35_linear_22_632)"/>
<path opacity="0.3" d="M228.885 415.855L180.805 335.277C180.45 334.682 179.819 334.604 179.396 335.103C178.973 335.603 178.918 336.49 179.273 337.085L227.353 417.663C227.708 418.258 228.339 418.335 228.762 417.836C229.185 417.337 229.24 416.45 228.885 415.855Z" fill="url(#paint36_linear_22_632)"/>
<path opacity="0.8" d="M331.585 438.224L270.905 336.532C270.55 335.937 269.92 335.86 269.497 336.359C269.073 336.858 269.018 337.745 269.373 338.34L330.052 440.032C330.407 440.627 331.038 440.705 331.461 440.206C331.884 439.706 331.94 438.819 331.585 438.224Z" fill="url(#paint37_linear_22_632)"/>
<path opacity="0.11" d="M141.11 651.717L18.9802 447.04C18.6252 446.445 17.9944 446.367 17.5714 446.866C17.1483 447.365 17.0931 448.252 17.4481 448.847L139.578 653.525C139.933 654.12 140.564 654.197 140.987 653.698C141.41 653.199 141.465 652.312 141.11 651.717Z" fill="url(#paint38_linear_22_632)"/>
<path opacity="0.52" d="M297.127 412.685L233.363 305.822C233.008 305.227 232.377 305.149 231.954 305.648C231.531 306.148 231.476 307.035 231.831 307.63L295.595 414.493C295.95 415.088 296.581 415.165 297.004 414.666C297.427 414.167 297.482 413.28 297.127 412.685Z" fill="url(#paint39_linear_22_632)"/>
<path opacity="0.66" d="M159.873 443.355L143.417 415.777C143.062 415.182 142.431 415.104 142.008 415.604C141.585 416.103 141.53 416.99 141.885 417.585L158.34 445.162C158.695 445.757 159.326 445.835 159.749 445.336C160.172 444.837 160.228 443.95 159.873 443.355Z" fill="url(#paint40_linear_22_632)"/>
<path opacity="0.92" d="M156.182 584.311L48.708 404.195C48.353 403.6 47.7222 403.523 47.2991 404.022C46.8761 404.521 46.8209 405.408 47.1759 406.003L154.65 586.119C155.005 586.714 155.636 586.792 156.059 586.293C156.482 585.793 156.537 584.906 156.182 584.311Z" fill="url(#paint41_linear_22_632)"/>
<path opacity="0.1" d="M74.9824 568.716L-25.2925 400.665C-25.6475 400.07 -26.2783 399.993 -26.7013 400.492C-27.1244 400.991 -27.1796 401.878 -26.8246 402.473L73.4503 570.524C73.8053 571.119 74.436 571.197 74.8591 570.697C75.2822 570.198 75.3374 569.311 74.9824 568.716Z" fill="url(#paint42_linear_22_632)"/>
<path opacity="0.14" d="M184.455 547.183L113.235 427.824C112.88 427.229 112.249 427.151 111.826 427.65C111.403 428.149 111.347 429.036 111.702 429.631L182.923 548.991C183.278 549.586 183.909 549.663 184.332 549.164C184.755 548.665 184.81 547.778 184.455 547.183Z" fill="url(#paint43_linear_22_632)"/>
<path opacity="0.36" d="M89.312 492.538L6.77804 354.219C6.42304 353.624 5.79228 353.546 5.36921 354.046C4.94613 354.545 4.89095 355.432 5.24595 356.027L87.7799 494.346C88.1349 494.941 88.7656 495.018 89.1887 494.519C89.6118 494.02 89.667 493.133 89.312 492.538Z" fill="url(#paint44_linear_22_632)"/>
<path opacity="0.94" d="M38.3718 336.553L5.71823 281.829C5.36323 281.234 4.73247 281.156 4.3094 281.655C3.88632 282.155 3.83114 283.042 4.18614 283.637L36.8398 338.361C37.1948 338.956 37.8255 339.033 38.2486 338.534C38.6717 338.035 38.7268 337.148 38.3718 336.553Z" fill="url(#paint45_linear_22_632)"/>
<path opacity="0.3" d="M93.3704 543.292L35.5195 446.34C35.1645 445.745 34.5337 445.667 34.1107 446.166C33.6876 446.665 33.6324 447.552 33.9874 448.147L91.8383 545.1C92.1933 545.695 92.8241 545.772 93.2471 545.273C93.6702 544.774 93.7254 543.887 93.3704 543.292Z" fill="url(#paint46_linear_22_632)"/>
<path opacity="0.38" d="M188.927 435.544L128.762 334.713C128.407 334.118 127.777 334.04 127.354 334.54C126.931 335.039 126.875 335.926 127.23 336.521L187.395 437.351C187.75 437.946 188.381 438.024 188.804 437.525C189.227 437.026 189.282 436.139 188.927 435.544Z" fill="url(#paint47_linear_22_632)"/>
<path opacity="0.11" d="M80.5815 477.281L-34.0918 285.1C-34.4468 284.505 -35.0776 284.428 -35.5007 284.927C-35.9237 285.426 -35.9789 286.313 -35.6239 286.908L79.0494 479.089C79.4044 479.684 80.0351 479.762 80.4582 479.263C80.8813 478.763 80.9365 477.876 80.5815 477.281Z" fill="url(#paint48_linear_22_632)"/>
<path opacity="0.76" d="M287.315 308.152L262.375 266.355C262.02 265.76 261.389 265.682 260.966 266.181C260.543 266.681 260.488 267.568 260.843 268.163L285.783 309.96C286.138 310.555 286.769 310.632 287.192 310.133C287.615 309.634 287.67 308.747 287.315 308.152Z" fill="url(#paint49_linear_22_632)"/>
<path opacity="0.97" d="M151.302 311.921L139.988 292.961C139.633 292.366 139.003 292.288 138.58 292.788C138.157 293.287 138.101 294.174 138.456 294.769L149.769 313.728C150.124 314.323 150.755 314.401 151.178 313.902C151.601 313.403 151.657 312.516 151.302 311.921Z" fill="url(#paint50_linear_22_632)"/>
<path opacity="0.35" d="M324.712 396.301L252.977 276.08C252.622 275.485 251.992 275.408 251.569 275.907C251.145 276.406 251.09 277.293 251.445 277.888L323.18 398.109C323.535 398.704 324.166 398.782 324.589 398.282C325.012 397.783 325.067 396.896 324.712 396.301Z" fill="url(#paint51_linear_22_632)"/>
<path opacity="0.62" d="M129.429 308.859L96.261 253.273C95.9059 252.678 95.2752 252.6 94.8521 253.099C94.429 253.599 94.3739 254.486 94.7289 255.081L127.897 310.667C128.252 311.262 128.882 311.339 129.306 310.84C129.729 310.341 129.784 309.454 129.429 308.859Z" fill="url(#paint52_linear_22_632)"/>
<path opacity="0.15" d="M250.571 488.477L207.119 415.655C206.764 415.06 206.133 414.982 205.71 415.481C205.287 415.981 205.232 416.868 205.587 417.463L249.039 490.285C249.394 490.88 250.025 490.957 250.448 490.458C250.871 489.959 250.926 489.072 250.571 488.477Z" fill="url(#paint53_linear_22_632)"/>
<path opacity="0.6" d="M269.898 243.54L204.591 134.092C204.236 133.497 203.606 133.419 203.182 133.918C202.759 134.417 202.704 135.304 203.059 135.899L268.366 245.348C268.721 245.943 269.352 246.021 269.775 245.521C270.198 245.022 270.253 244.135 269.898 243.54Z" fill="url(#paint54_linear_22_632)"/>
<path opacity="0.21" d="M227.64 228.427L134.05 71.5794C133.695 70.9845 133.064 70.9069 132.641 71.4061C132.218 71.9053 132.163 72.7923 132.518 73.3873L226.108 230.235C226.463 230.83 227.094 230.907 227.517 230.408C227.94 229.909 227.995 229.022 227.64 228.427Z" fill="url(#paint55_linear_22_632)"/>
<path opacity="0.4" d="M234.482 429.086L121.608 239.921C121.253 239.326 120.622 239.248 120.199 239.747C119.776 240.247 119.721 241.134 120.076 241.729L232.95 430.894C233.305 431.489 233.935 431.566 234.358 431.067C234.781 430.568 234.837 429.681 234.482 429.086Z" fill="url(#paint56_linear_22_632)"/>
<path opacity="0.37" d="M84.9576 336.433L55.1323 286.449C54.7773 285.854 54.1465 285.776 53.7235 286.275C53.3004 286.774 53.2452 287.661 53.6002 288.256L83.4255 338.241C83.7805 338.836 84.4113 338.913 84.8344 338.414C85.2575 337.915 85.3126 337.028 84.9576 336.433Z" fill="url(#paint57_linear_22_632)"/>
<path opacity="0.19" d="M80.7856 488.752L41.7041 423.255C41.3491 422.66 40.7183 422.582 40.2952 423.082C39.8722 423.581 39.817 424.468 40.172 425.063L79.2535 490.56C79.6085 491.154 80.2392 491.232 80.6623 490.733C81.0854 490.234 81.1406 489.347 80.7856 488.752Z" fill="url(#paint58_linear_22_632)"/>
<path opacity="0.43" d="M248.141 335.742L181.549 224.139C181.194 223.544 180.563 223.467 180.14 223.966C179.717 224.465 179.661 225.352 180.016 225.947L246.609 337.55C246.964 338.145 247.595 338.223 248.018 337.724C248.441 337.224 248.496 336.337 248.141 335.742Z" fill="url(#paint59_linear_22_632)"/>
<path opacity="0.64" d="M96.4862 461.32L70.0034 416.937C69.6484 416.342 69.0176 416.264 68.5946 416.764C68.1715 417.263 68.1163 418.15 68.4713 418.745L94.9541 463.127C95.3091 463.722 95.9399 463.8 96.363 463.301C96.7861 462.802 96.8412 461.915 96.4862 461.32Z" fill="url(#paint60_linear_22_632)"/>
<path opacity="0.13" d="M310.498 495.026L234.392 367.48C234.037 366.885 233.406 366.808 232.983 367.307C232.56 367.806 232.505 368.693 232.86 369.288L308.966 496.834C309.321 497.429 309.952 497.507 310.375 497.008C310.798 496.508 310.853 495.621 310.498 495.026Z" fill="url(#paint61_linear_22_632)"/>
<path opacity="0.11" d="M343.599 397.641L283.691 297.241C283.336 296.646 282.705 296.568 282.282 297.068C281.859 297.567 281.804 298.454 282.159 299.049L342.067 399.448C342.422 400.043 343.052 400.121 343.476 399.622C343.899 399.123 343.954 398.236 343.599 397.641Z" fill="url(#paint62_linear_22_632)"/>
<path opacity="0.08" d="M257.184 286.912L196.505 185.22C196.15 184.625 195.52 184.547 195.097 185.046C194.673 185.545 194.618 186.432 194.973 187.027L255.652 288.72C256.007 289.315 256.638 289.392 257.061 288.893C257.484 288.394 257.539 287.507 257.184 286.912Z" fill="url(#paint63_linear_22_632)"/>
<path opacity="0.88" d="M217.684 545.173L140.806 416.334C140.451 415.739 139.82 415.661 139.397 416.161C138.974 416.66 138.919 417.547 139.274 418.142L216.151 546.981C216.506 547.576 217.137 547.653 217.56 547.154C217.983 546.655 218.039 545.768 217.684 545.173Z" fill="url(#paint64_linear_22_632)"/>
</g>
</g>
<defs>
<linearGradient id="paint0_linear_22_632" x1="160" y1="0" x2="160" y2="450" gradientUnits="userSpaceOnUse">
<stop stop-color="#00C6BA"/>
<stop offset="1" stop-color="#323232"/>
</linearGradient>
<linearGradient id="paint1_linear_22_632" x1="160" y1="0" x2="160" y2="450" gradientUnits="userSpaceOnUse">
<stop stop-color="#00C6BA"/>
<stop offset="1" stop-color="#202020"/>
</linearGradient>
<linearGradient id="paint2_linear_22_632" x1="2445.91" y1="-2861.76" x2="2627" y2="-2708.29" gradientUnits="userSpaceOnUse">
<stop/>
<stop offset="0.45" stop-color="#323232"/>
<stop offset="1" stop-color="#00C6BA"/>
</linearGradient>
<linearGradient id="paint3_linear_22_632" x1="4677.81" y1="-4778.11" x2="4858.9" y2="-4624.65" gradientUnits="userSpaceOnUse">
<stop/>
<stop offset="0.45" stop-color="#323232"/>
<stop offset="1" stop-color="#00C6BA"/>
</linearGradient>
<linearGradient id="paint4_linear_22_632" x1="1536.91" y1="-1081.88" x2="1717.99" y2="-928.419" gradientUnits="userSpaceOnUse">
<stop/>
<stop offset="0.45" stop-color="#323232"/>
<stop offset="1" stop-color="#00C6BA"/>
</linearGradient>
<linearGradient id="paint5_linear_22_632" x1="6204.2" y1="-6971.41" x2="6385.29" y2="-6817.94" gradientUnits="userSpaceOnUse">
<stop/>
<stop offset="0.45" stop-color="#323232"/>
<stop offset="1" stop-color="#00C6BA"/>
</linearGradient>
<linearGradient id="paint6_linear_22_632" x1="5338.03" y1="-5924.88" x2="5519.12" y2="-5771.42" gradientUnits="userSpaceOnUse">
<stop/>
<stop offset="0.45" stop-color="#323232"/>
<stop offset="1" stop-color="#00C6BA"/>
</linearGradient>
<linearGradient id="paint7_linear_22_632" x1="5758.67" y1="-5946.22" x2="5939.75" y2="-5792.75" gradientUnits="userSpaceOnUse">
<stop/>
<stop offset="0.45" stop-color="#323232"/>
<stop offset="1" stop-color="#00C6BA"/>
</linearGradient>
<linearGradient id="paint8_linear_22_632" x1="4963.55" y1="-5238.11" x2="5144.64" y2="-5084.65" gradientUnits="userSpaceOnUse">
<stop/>
<stop offset="0.45" stop-color="#323232"/>
<stop offset="1" stop-color="#00C6BA"/>
</linearGradient>
<linearGradient id="paint9_linear_22_632" x1="2982.79" y1="-3043.24" x2="3163.88" y2="-2889.78" gradientUnits="userSpaceOnUse">
<stop/>
<stop offset="0.45" stop-color="#323232"/>
<stop offset="1" stop-color="#00C6BA"/>
</linearGradient>
<linearGradient id="paint10_linear_22_632" x1="4335.54" y1="-4463.55" x2="4516.62" y2="-4310.08" gradientUnits="userSpaceOnUse">
<stop/>
<stop offset="0.45" stop-color="#323232"/>
<stop offset="1" stop-color="#00C6BA"/>
</linearGradient>
<linearGradient id="paint11_linear_22_632" x1="4140.41" y1="-4301.16" x2="4321.5" y2="-4147.69" gradientUnits="userSpaceOnUse">
<stop/>
<stop offset="0.45" stop-color="#323232"/>
<stop offset="1" stop-color="#00C6BA"/>
</linearGradient>
<linearGradient id="paint12_linear_22_632" x1="3480.08" y1="-3276.21" x2="3661.17" y2="-3122.75" gradientUnits="userSpaceOnUse">
<stop/>
<stop offset="0.45" stop-color="#323232"/>
<stop offset="1" stop-color="#00C6BA"/>
</linearGradient>
<linearGradient id="paint13_linear_22_632" x1="3017.67" y1="-2749.79" x2="3198.76" y2="-2596.33" gradientUnits="userSpaceOnUse">
<stop/>
<stop offset="0.45" stop-color="#323232"/>
<stop offset="1" stop-color="#00C6BA"/>
</linearGradient>
<linearGradient id="paint14_linear_22_632" x1="1666.43" y1="-1708.07" x2="1847.52" y2="-1554.61" gradientUnits="userSpaceOnUse">
<stop/>
<stop offset="0.45" stop-color="#323232"/>
<stop offset="1" stop-color="#00C6BA"/>
</linearGradient>
<linearGradient id="paint15_linear_22_632" x1="6274.55" y1="-7223.49" x2="6455.64" y2="-7070.02" gradientUnits="userSpaceOnUse">
<stop/>
<stop offset="0.45" stop-color="#323232"/>
<stop offset="1" stop-color="#00C6BA"/>
</linearGradient>
<linearGradient id="paint16_linear_22_632" x1="6028.8" y1="-7085.14" x2="6209.88" y2="-6931.67" gradientUnits="userSpaceOnUse">
<stop/>
<stop offset="0.45" stop-color="#323232"/>
<stop offset="1" stop-color="#00C6BA"/>
</linearGradient>
<linearGradient id="paint17_linear_22_632" x1="2707.5" y1="-2857.44" x2="2888.58" y2="-2703.97" gradientUnits="userSpaceOnUse">
<stop/>
<stop offset="0.45" stop-color="#323232"/>
<stop offset="1" stop-color="#00C6BA"/>
</linearGradient>
<linearGradient id="paint18_linear_22_632" x1="1786.87" y1="-1933.65" x2="1967.96" y2="-1780.18" gradientUnits="userSpaceOnUse">
<stop/>
<stop offset="0.45" stop-color="#323232"/>
<stop offset="1" stop-color="#00C6BA"/>
</linearGradient>
<linearGradient id="paint19_linear_22_632" x1="4677.26" y1="-5388.4" x2="4858.35" y2="-5234.94" gradientUnits="userSpaceOnUse">
<stop/>
<stop offset="0.45" stop-color="#323232"/>
<stop offset="1" stop-color="#00C6BA"/>
</linearGradient>
<linearGradient id="paint20_linear_22_632" x1="1620.07" y1="-1240.65" x2="1801.16" y2="-1087.18" gradientUnits="userSpaceOnUse">
<stop/>
<stop offset="0.45" stop-color="#323232"/>
<stop offset="1" stop-color="#00C6BA"/>
</linearGradient>
<linearGradient id="paint21_linear_22_632" x1="3097.68" y1="-3436.22" x2="3278.77" y2="-3282.75" gradientUnits="userSpaceOnUse">
<stop/>
<stop offset="0.45" stop-color="#323232"/>
<stop offset="1" stop-color="#00C6BA"/>
</linearGradient>
<linearGradient id="paint22_linear_22_632" x1="5389.04" y1="-5596.93" x2="5570.13" y2="-5443.47" gradientUnits="userSpaceOnUse">
<stop/>
<stop offset="0.45" stop-color="#323232"/>
<stop offset="1" stop-color="#00C6BA"/>
</linearGradient>
<linearGradient id="paint23_linear_22_632" x1="4817.77" y1="-5397.22" x2="4998.86" y2="-5243.76" gradientUnits="userSpaceOnUse">
<stop/>
<stop offset="0.45" stop-color="#323232"/>
<stop offset="1" stop-color="#00C6BA"/>
</linearGradient>
<linearGradient id="paint24_linear_22_632" x1="3126.29" y1="-3347.17" x2="3307.38" y2="-3193.71" gradientUnits="userSpaceOnUse">
<stop/>
<stop offset="0.45" stop-color="#323232"/>
<stop offset="1" stop-color="#00C6BA"/>
</linearGradient>
<linearGradient id="paint25_linear_22_632" x1="1729.43" y1="-1398.31" x2="1910.51" y2="-1244.84" gradientUnits="userSpaceOnUse">
<stop/>
<stop offset="0.45" stop-color="#323232"/>
<stop offset="1" stop-color="#00C6BA"/>
</linearGradient>
<linearGradient id="paint26_linear_22_632" x1="3030.28" y1="-2889.06" x2="3211.37" y2="-2735.59" gradientUnits="userSpaceOnUse">
<stop/>
<stop offset="0.45" stop-color="#323232"/>
<stop offset="1" stop-color="#00C6BA"/>
</linearGradient>
<linearGradient id="paint27_linear_22_632" x1="4039.85" y1="-4605.37" x2="4220.94" y2="-4451.91" gradientUnits="userSpaceOnUse">
<stop/>
<stop offset="0.45" stop-color="#323232"/>
<stop offset="1" stop-color="#00C6BA"/>
</linearGradient>
<linearGradient id="paint28_linear_22_632" x1="9607.32" y1="-11155.7" x2="9788.4" y2="-11002.2" gradientUnits="userSpaceOnUse">
<stop/>
<stop offset="0.45" stop-color="#323232"/>
<stop offset="1" stop-color="#00C6BA"/>
</linearGradient>
<linearGradient id="paint29_linear_22_632" x1="3244.01" y1="-3550.82" x2="3425.09" y2="-3397.35" gradientUnits="userSpaceOnUse">
<stop/>
<stop offset="0.45" stop-color="#323232"/>
<stop offset="1" stop-color="#00C6BA"/>
</linearGradient>
<linearGradient id="paint30_linear_22_632" x1="2018.64" y1="-2034.02" x2="2199.72" y2="-1880.56" gradientUnits="userSpaceOnUse">
<stop/>
<stop offset="0.45" stop-color="#323232"/>
<stop offset="1" stop-color="#00C6BA"/>
</linearGradient>
<linearGradient id="paint31_linear_22_632" x1="5777.87" y1="-6806.44" x2="5958.96" y2="-6652.98" gradientUnits="userSpaceOnUse">
<stop/>
<stop offset="0.45" stop-color="#323232"/>
<stop offset="1" stop-color="#00C6BA"/>
</linearGradient>
<linearGradient id="paint32_linear_22_632" x1="1953.33" y1="-1763.66" x2="2134.41" y2="-1610.19" gradientUnits="userSpaceOnUse">
<stop/>
<stop offset="0.45" stop-color="#323232"/>
<stop offset="1" stop-color="#00C6BA"/>
</linearGradient>
<linearGradient id="paint33_linear_22_632" x1="5801" y1="-6403.78" x2="5982.08" y2="-6250.31" gradientUnits="userSpaceOnUse">
<stop/>
<stop offset="0.45" stop-color="#323232"/>
<stop offset="1" stop-color="#00C6BA"/>
</linearGradient>
<linearGradient id="paint34_linear_22_632" x1="1197.84" y1="-794.23" x2="1378.93" y2="-640.764" gradientUnits="userSpaceOnUse">
<stop/>
<stop offset="0.45" stop-color="#323232"/>
<stop offset="1" stop-color="#00C6BA"/>
</linearGradient>
<linearGradient id="paint35_linear_22_632" x1="1779.73" y1="-1977.73" x2="1960.82" y2="-1824.26" gradientUnits="userSpaceOnUse">
<stop/>
<stop offset="0.45" stop-color="#323232"/>
<stop offset="1" stop-color="#00C6BA"/>
</linearGradient>
<linearGradient id="paint36_linear_22_632" x1="3387.82" y1="-3429.12" x2="3568.91" y2="-3275.66" gradientUnits="userSpaceOnUse">
<stop/>
<stop offset="0.45" stop-color="#323232"/>
<stop offset="1" stop-color="#00C6BA"/>
</linearGradient>
<linearGradient id="paint37_linear_22_632" x1="4251.15" y1="-4483.82" x2="4432.24" y2="-4330.36" gradientUnits="userSpaceOnUse">
<stop/>
<stop offset="0.45" stop-color="#323232"/>
<stop offset="1" stop-color="#00C6BA"/>
</linearGradient>
<linearGradient id="paint38_linear_22_632" x1="7790.06" y1="-8141.15" x2="7971.15" y2="-7987.69" gradientUnits="userSpaceOnUse">
<stop/>
<stop offset="0.45" stop-color="#323232"/>
<stop offset="1" stop-color="#00C6BA"/>
</linearGradient>
<linearGradient id="paint39_linear_22_632" x1="4364.55" y1="-4658.87" x2="4545.64" y2="-4505.4" gradientUnits="userSpaceOnUse">
<stop/>
<stop offset="0.45" stop-color="#323232"/>
<stop offset="1" stop-color="#00C6BA"/>
</linearGradient>
<linearGradient id="paint40_linear_22_632" x1="1516.54" y1="-1061.66" x2="1697.63" y2="-908.198" gradientUnits="userSpaceOnUse">
<stop/>
<stop offset="0.45" stop-color="#323232"/>
<stop offset="1" stop-color="#00C6BA"/>
</linearGradient>
<linearGradient id="paint41_linear_22_632" x1="6895.44" y1="-7227.29" x2="7076.53" y2="-7073.82" gradientUnits="userSpaceOnUse">
<stop/>
<stop offset="0.45" stop-color="#323232"/>
<stop offset="1" stop-color="#00C6BA"/>
</linearGradient>
<linearGradient id="paint42_linear_22_632" x1="6374" y1="-6583.16" x2="6555.09" y2="-6429.69" gradientUnits="userSpaceOnUse">
<stop/>
<stop offset="0.45" stop-color="#323232"/>
<stop offset="1" stop-color="#00C6BA"/>
</linearGradient>
<linearGradient id="paint43_linear_22_632" x1="4802.15" y1="-4803.23" x2="4983.24" y2="-4649.76" gradientUnits="userSpaceOnUse">
<stop/>
<stop offset="0.45" stop-color="#323232"/>
<stop offset="1" stop-color="#00C6BA"/>
</linearGradient>
<linearGradient id="paint44_linear_22_632" x1="5292.06" y1="-5463.05" x2="5473.15" y2="-5309.59" gradientUnits="userSpaceOnUse">
<stop/>
<stop offset="0.45" stop-color="#323232"/>
<stop offset="1" stop-color="#00C6BA"/>
</linearGradient>
<linearGradient id="paint45_linear_22_632" x1="2205.93" y1="-2067.67" x2="2387.02" y2="-1914.2" gradientUnits="userSpaceOnUse">
<stop/>
<stop offset="0.45" stop-color="#323232"/>
<stop offset="1" stop-color="#00C6BA"/>
</linearGradient>
<linearGradient id="paint46_linear_22_632" x1="3925.96" y1="-3697.13" x2="4107.04" y2="-3543.66" gradientUnits="userSpaceOnUse">
<stop/>
<stop offset="0.45" stop-color="#323232"/>
<stop offset="1" stop-color="#00C6BA"/>
</linearGradient>
<linearGradient id="paint47_linear_22_632" x1="4058.61" y1="-4168.44" x2="4239.7" y2="-4014.97" gradientUnits="userSpaceOnUse">
<stop/>
<stop offset="0.45" stop-color="#323232"/>
<stop offset="1" stop-color="#00C6BA"/>
</linearGradient>
<linearGradient id="paint48_linear_22_632" x1="7117.9" y1="-7698.51" x2="7298.99" y2="-7545.04" gradientUnits="userSpaceOnUse">
<stop/>
<stop offset="0.45" stop-color="#323232"/>
<stop offset="1" stop-color="#00C6BA"/>
</linearGradient>
<linearGradient id="paint49_linear_22_632" x1="2012.88" y1="-2056.22" x2="2193.97" y2="-1902.75" gradientUnits="userSpaceOnUse">
<stop/>
<stop offset="0.45" stop-color="#323232"/>
<stop offset="1" stop-color="#00C6BA"/>
</linearGradient>
<linearGradient id="paint50_linear_22_632" x1="1079.09" y1="-834.618" x2="1260.17" y2="-681.152" gradientUnits="userSpaceOnUse">
<stop/>
<stop offset="0.45" stop-color="#323232"/>
<stop offset="1" stop-color="#00C6BA"/>
</linearGradient>
<linearGradient id="paint51_linear_22_632" x1="4838.15" y1="-5286.35" x2="5019.24" y2="-5132.89" gradientUnits="userSpaceOnUse">
<stop/>
<stop offset="0.45" stop-color="#323232"/>
<stop offset="1" stop-color="#00C6BA"/>
</linearGradient>
<linearGradient id="paint52_linear_22_632" x1="2310.08" y1="-2314.94" x2="2491.17" y2="-2161.48" gradientUnits="userSpaceOnUse">
<stop/>
<stop offset="0.45" stop-color="#323232"/>
<stop offset="1" stop-color="#00C6BA"/>
</linearGradient>
<linearGradient id="paint53_linear_22_632" x1="3218.4" y1="-3068.59" x2="3399.49" y2="-2915.12" gradientUnits="userSpaceOnUse">
<stop/>
<stop offset="0.45" stop-color="#323232"/>
<stop offset="1" stop-color="#00C6BA"/>
</linearGradient>
<linearGradient id="paint54_linear_22_632" x1="4253.36" y1="-4902.22" x2="4434.44" y2="-4748.76" gradientUnits="userSpaceOnUse">
<stop/>
<stop offset="0.45" stop-color="#323232"/>
<stop offset="1" stop-color="#00C6BA"/>
</linearGradient>
<linearGradient id="paint55_linear_22_632" x1="5819.56" y1="-6802.82" x2="6000.65" y2="-6649.35" gradientUnits="userSpaceOnUse">
<stop/>
<stop offset="0.45" stop-color="#323232"/>
<stop offset="1" stop-color="#00C6BA"/>
</linearGradient>
<linearGradient id="paint56_linear_22_632" x1="7138.83" y1="-7932.35" x2="7319.92" y2="-7778.89" gradientUnits="userSpaceOnUse">
<stop/>
<stop offset="0.45" stop-color="#323232"/>
<stop offset="1" stop-color="#00C6BA"/>
</linearGradient>
<linearGradient id="paint57_linear_22_632" x1="2095.26" y1="-1963.36" x2="2276.34" y2="-1809.9" gradientUnits="userSpaceOnUse">
<stop/>
<stop offset="0.45" stop-color="#323232"/>
<stop offset="1" stop-color="#00C6BA"/>
</linearGradient>
<linearGradient id="paint58_linear_22_632" x1="2776.24" y1="-2427.86" x2="2957.32" y2="-2274.39" gradientUnits="userSpaceOnUse">
<stop/>
<stop offset="0.45" stop-color="#323232"/>
<stop offset="1" stop-color="#00C6BA"/>
</linearGradient>
<linearGradient id="paint59_linear_22_632" x1="4395.33" y1="-4844.98" x2="4576.41" y2="-4691.51" gradientUnits="userSpaceOnUse">
<stop/>
<stop offset="0.45" stop-color="#323232"/>
<stop offset="1" stop-color="#00C6BA"/>
</linearGradient>
<linearGradient id="paint60_linear_22_632" x1="2040.83" y1="-1613.42" x2="2221.91" y2="-1459.95" gradientUnits="userSpaceOnUse">
<stop/>
<stop offset="0.45" stop-color="#323232"/>
<stop offset="1" stop-color="#00C6BA"/>
</linearGradient>
<linearGradient id="paint61_linear_22_632" x1="5172.82" y1="-5451.34" x2="5353.91" y2="-5297.88" gradientUnits="userSpaceOnUse">
<stop/>
<stop offset="0.45" stop-color="#323232"/>
<stop offset="1" stop-color="#00C6BA"/>
</linearGradient>
<linearGradient id="paint62_linear_22_632" x1="4179.57" y1="-4499.56" x2="4360.65" y2="-4346.09" gradientUnits="userSpaceOnUse">
<stop/>
<stop offset="0.45" stop-color="#323232"/>
<stop offset="1" stop-color="#00C6BA"/>
</linearGradient>
<linearGradient id="paint63_linear_22_632" x1="4015.99" y1="-4506.39" x2="4197.08" y2="-4352.92" gradientUnits="userSpaceOnUse">
<stop/>
<stop offset="0.45" stop-color="#323232"/>
<stop offset="1" stop-color="#00C6BA"/>
</linearGradient>
<linearGradient id="paint64_linear_22_632" x1="5163.23" y1="-5264.79" x2="5344.31" y2="-5111.32" gradientUnits="userSpaceOnUse">
<stop/>
<stop offset="0.45" stop-color="#323232"/>
<stop offset="1" stop-color="#00C6BA"/>
</linearGradient>
<clipPath id="clip0_22_632">
<rect width="320" height="450" fill="white"/>
</clipPath>
</defs>
</svg>
