<svg width="450" height="600" viewBox="0 0 450 600" fill="none" xmlns="http://www.w3.org/2000/svg">
<g opacity="0.2">
<path d="M425 0H25.0001C11.193 0 6.86646e-05 11.1929 6.86646e-05 25V575C6.86646e-05 588.807 11.193 600 25.0001 600H425C438.807 600 450 588.807 450 575V25C450 11.1929 438.807 0 425 0Z" fill="url(#paint0_linear_26_1434)" fill-opacity="0.2"/>
<path d="M319.741 733.053L258.636 635.956C258.136 635.163 257.249 635.06 256.655 635.725C256.06 636.391 255.982 637.574 256.481 638.367L317.586 735.463C318.085 736.256 318.972 736.36 319.567 735.694C320.162 735.029 320.24 733.846 319.741 733.053Z" fill="url(#paint1_linear_26_1434)"/>
<path d="M352.001 838.489L230.876 646.02C230.376 645.227 229.489 645.123 228.894 645.789C228.299 646.455 228.222 647.637 228.721 648.431L349.846 840.899C350.346 841.692 351.233 841.796 351.827 841.13C352.422 840.465 352.5 839.282 352.001 838.489Z" fill="url(#paint2_linear_26_1434)"/>
<path d="M350.699 235.897L300.802 156.612C300.303 155.818 299.416 155.715 298.821 156.38C298.226 157.046 298.149 158.229 298.648 159.022L348.544 238.308C349.044 239.101 349.931 239.204 350.526 238.539C351.12 237.873 351.198 236.69 350.699 235.897Z" fill="url(#paint3_linear_26_1434)"/>
<path d="M308.286 803.638L185.715 608.871C185.216 608.078 184.329 607.974 183.734 608.64C183.139 609.306 183.061 610.488 183.56 611.281L306.132 806.048C306.631 806.842 307.518 806.945 308.113 806.279C308.708 805.614 308.786 804.431 308.286 803.638Z" fill="url(#paint4_linear_26_1434)"/>
<path d="M202.96 643.79L103.167 485.219C102.668 484.426 101.781 484.322 101.186 484.988C100.591 485.653 100.513 486.836 101.012 487.629L200.805 646.201C201.304 646.994 202.191 647.097 202.786 646.432C203.381 645.766 203.459 644.583 202.96 643.79Z" fill="url(#paint5_linear_26_1434)"/>
<path d="M288.403 609.778L266.348 574.731C265.849 573.938 264.962 573.834 264.367 574.5C263.772 575.166 263.694 576.348 264.193 577.142L286.249 612.188C286.748 612.981 287.635 613.085 288.23 612.419C288.825 611.754 288.903 610.571 288.403 609.778Z" fill="url(#paint6_linear_26_1434)"/>
<path d="M326.004 475.203L188.247 256.306C187.748 255.513 186.861 255.409 186.266 256.075C185.671 256.74 185.593 257.923 186.092 258.716L323.85 477.613C324.349 478.407 325.236 478.51 325.831 477.845C326.426 477.179 326.504 475.996 326.004 475.203Z" fill="url(#paint7_linear_26_1434)"/>
<path d="M153.82 431.701L33.0563 239.807C32.5571 239.014 31.6701 238.911 31.0751 239.576C30.4802 240.242 30.4026 241.425 30.9018 242.218L151.665 434.112C152.165 434.905 153.052 435.009 153.647 434.343C154.242 433.677 154.319 432.495 153.82 431.701Z" fill="url(#paint8_linear_26_1434)"/>
<path d="M427.597 779.302L308.279 589.706C307.78 588.913 306.893 588.81 306.298 589.475C305.703 590.141 305.626 591.324 306.125 592.117L425.442 781.713C425.942 782.506 426.829 782.61 427.424 781.944C428.018 781.278 428.096 780.096 427.597 779.302Z" fill="url(#paint9_linear_26_1434)"/>
<path d="M137.528 561.546L27.9731 387.463C27.4739 386.669 26.5869 386.566 25.9919 387.232C25.397 387.897 25.3194 389.08 25.8186 389.873L135.374 563.957C135.873 564.75 136.76 564.853 137.355 564.188C137.95 563.522 138.027 562.339 137.528 561.546Z" fill="url(#paint10_linear_26_1434)"/>
<path d="M361.426 505.467L303.575 413.542C303.076 412.748 302.189 412.645 301.594 413.311C300.999 413.976 300.921 415.159 301.421 415.952L359.272 507.878C359.771 508.671 360.658 508.774 361.253 508.109C361.848 507.443 361.925 506.26 361.426 505.467Z" fill="url(#paint11_linear_26_1434)"/>
<path d="M363.855 628.135L275.271 487.374C274.772 486.581 273.885 486.477 273.29 487.143C272.695 487.809 272.617 488.991 273.117 489.785L361.701 630.545C362.2 631.338 363.087 631.442 363.682 630.776C364.277 630.111 364.354 628.928 363.855 628.135Z" fill="url(#paint12_linear_26_1434)"/>
<path d="M393.005 593.65L309.121 460.359C308.622 459.565 307.735 459.462 307.14 460.127C306.545 460.793 306.468 461.976 306.967 462.769L390.851 596.061C391.35 596.854 392.237 596.957 392.832 596.292C393.427 595.626 393.504 594.444 393.005 593.65Z" fill="url(#paint13_linear_26_1434)"/>
<path d="M235.282 814.217L119.219 629.792C118.72 628.999 117.833 628.895 117.238 629.561C116.643 630.226 116.565 631.409 117.064 632.202L233.128 816.628C233.627 817.421 234.514 817.524 235.109 816.859C235.704 816.193 235.782 815.01 235.282 814.217Z" fill="url(#paint14_linear_26_1434)"/>
<path d="M285.311 633.712L278.441 622.796C277.942 622.003 277.055 621.9 276.46 622.565C275.865 623.231 275.787 624.414 276.286 625.207L283.156 636.123C283.655 636.916 284.542 637.02 285.137 636.354C285.732 635.688 285.81 634.506 285.311 633.712Z" fill="url(#paint15_linear_26_1434)"/>
<path d="M379.387 768.06L349.739 720.949C349.24 720.155 348.353 720.052 347.758 720.717C347.163 721.383 347.085 722.566 347.584 723.359L377.233 770.471C377.732 771.264 378.619 771.367 379.214 770.702C379.809 770.036 379.887 768.854 379.387 768.06Z" fill="url(#paint16_linear_26_1434)"/>
<path d="M60.9498 639.32L-12.4485 522.689C-12.9477 521.896 -13.8347 521.793 -14.4297 522.458C-15.0246 523.124 -15.1022 524.306 -14.603 525.1L58.7953 641.73C59.2945 642.523 60.1815 642.627 60.7765 641.961C61.3714 641.295 61.449 640.113 60.9498 639.32Z" fill="url(#paint17_linear_26_1434)"/>
<path d="M206.156 657.829L147.22 564.18C146.721 563.387 145.834 563.283 145.239 563.949C144.644 564.615 144.567 565.797 145.066 566.59L204.001 660.239C204.501 661.033 205.388 661.136 205.983 660.471C206.578 659.805 206.655 658.622 206.156 657.829Z" fill="url(#paint18_linear_26_1434)"/>
<path d="M443.573 380.725L417.178 338.784C416.679 337.991 415.792 337.887 415.197 338.553C414.602 339.218 414.525 340.401 415.024 341.194L441.418 383.135C441.918 383.929 442.805 384.032 443.4 383.366C443.994 382.701 444.072 381.518 443.573 380.725Z" fill="url(#paint19_linear_26_1434)"/>
<path d="M125.412 328.81L-20.6611 96.6987C-21.1603 95.9054 -22.0473 95.8019 -22.6423 96.4676C-23.2372 97.1332 -23.3148 98.3159 -22.8156 99.1091L123.258 331.221C123.757 332.014 124.644 332.117 125.239 331.452C125.834 330.786 125.912 329.603 125.412 328.81Z" fill="url(#paint20_linear_26_1434)"/>
<path d="M499.536 333.181L366.84 122.328C366.341 121.534 365.454 121.431 364.859 122.096C364.264 122.762 364.187 123.945 364.686 124.738L497.381 335.592C497.881 336.385 498.768 336.488 499.363 335.823C499.957 335.157 500.035 333.975 499.536 333.181Z" fill="url(#paint21_linear_26_1434)"/>
<path d="M461.13 446.934L410.872 367.074C410.372 366.281 409.485 366.178 408.891 366.843C408.296 367.509 408.218 368.691 408.717 369.485L458.975 449.345C459.474 450.138 460.361 450.242 460.956 449.576C461.551 448.91 461.629 447.728 461.13 446.934Z" fill="url(#paint22_linear_26_1434)"/>
<path d="M435.436 332.885L405.065 284.624C404.566 283.831 403.679 283.727 403.084 284.393C402.489 285.059 402.411 286.241 402.91 287.034L433.282 335.295C433.781 336.088 434.668 336.192 435.263 335.526C435.858 334.861 435.936 333.678 435.436 332.885Z" fill="url(#paint23_linear_26_1434)"/>
<path d="M332.837 327.625L229.79 163.883C229.29 163.09 228.403 162.987 227.809 163.652C227.214 164.318 227.136 165.501 227.635 166.294L330.682 330.036C331.181 330.829 332.068 330.933 332.663 330.267C333.258 329.601 333.336 328.419 332.837 327.625Z" fill="url(#paint24_linear_26_1434)"/>
<path d="M278.037 573.826L253.089 534.183C252.59 533.39 251.703 533.286 251.108 533.952C250.513 534.618 250.435 535.8 250.935 536.593L275.883 576.236C276.382 577.03 277.269 577.133 277.864 576.467C278.459 575.802 278.536 574.619 278.037 573.826Z" fill="url(#paint25_linear_26_1434)"/>
<path d="M288.542 341.712L223.46 238.296C222.96 237.503 222.073 237.4 221.478 238.065C220.883 238.731 220.806 239.914 221.305 240.707L286.387 344.123C286.886 344.916 287.773 345.02 288.368 344.354C288.963 343.688 289.041 342.506 288.542 341.712Z" fill="url(#paint26_linear_26_1434)"/>
<path d="M470.327 734.621L360.049 559.388C359.55 558.595 358.663 558.491 358.068 559.157C357.473 559.823 357.395 561.005 357.895 561.799L468.173 737.031C468.672 737.824 469.559 737.928 470.154 737.262C470.749 736.597 470.826 735.414 470.327 734.621Z" fill="url(#paint27_linear_26_1434)"/>
<path d="M270.741 825.018L176.01 674.491C175.511 673.697 174.624 673.594 174.029 674.259C173.434 674.925 173.357 676.108 173.856 676.901L268.587 827.429C269.086 828.222 269.973 828.325 270.568 827.66C271.163 826.994 271.24 825.812 270.741 825.018Z" fill="url(#paint28_linear_26_1434)"/>
<path d="M270.339 403.711L164.038 234.798C163.538 234.005 162.651 233.901 162.056 234.567C161.462 235.233 161.384 236.415 161.883 237.208L268.184 406.121C268.683 406.915 269.57 407.018 270.165 406.352C270.76 405.687 270.838 404.504 270.339 403.711Z" fill="url(#paint29_linear_26_1434)"/>
<path d="M69.267 356.697L-0.515663 245.812C-1.01488 245.019 -1.90189 244.915 -2.49683 245.581C-3.09178 246.246 -3.16938 247.429 -2.67016 248.222L67.1125 359.107C67.6117 359.901 68.4987 360.004 69.0936 359.338C69.6886 358.673 69.7662 357.49 69.267 356.697Z" fill="url(#paint30_linear_26_1434)"/>
<path d="M430.272 780.781L374.229 691.728C373.73 690.935 372.843 690.831 372.248 691.497C371.653 692.163 371.575 693.345 372.075 694.139L428.118 783.191C428.617 783.984 429.504 784.088 430.099 783.422C430.694 782.757 430.771 781.574 430.272 780.781Z" fill="url(#paint31_linear_26_1434)"/>
<path d="M444.557 601.464L420.694 563.545C420.195 562.752 419.308 562.648 418.713 563.314C418.118 563.979 418.04 565.162 418.539 565.955L442.403 603.874C442.902 604.668 443.789 604.771 444.384 604.106C444.979 603.44 445.057 602.257 444.557 601.464Z" fill="url(#paint32_linear_26_1434)"/>
<path d="M138.033 569.664L75.8433 470.845C75.3441 470.051 74.4571 469.948 73.8621 470.613C73.2672 471.279 73.1896 472.462 73.6888 473.255L135.878 572.075C136.378 572.868 137.265 572.971 137.86 572.306C138.455 571.64 138.532 570.458 138.033 569.664Z" fill="url(#paint33_linear_26_1434)"/>
<path d="M416.228 356.299L330.898 220.709C330.399 219.916 329.512 219.813 328.917 220.478C328.322 221.144 328.244 222.327 328.744 223.12L414.074 358.71C414.573 359.503 415.46 359.607 416.055 358.941C416.65 358.275 416.727 357.093 416.228 356.299Z" fill="url(#paint34_linear_26_1434)"/>
<path d="M316.268 653.644L300.359 628.365C299.859 627.571 298.972 627.468 298.378 628.134C297.783 628.799 297.705 629.982 298.204 630.775L314.113 656.055C314.612 656.848 315.499 656.951 316.094 656.286C316.689 655.62 316.767 654.437 316.268 653.644Z" fill="url(#paint35_linear_26_1434)"/>
<path d="M235.718 410.072L11.9078 54.4363C11.4086 53.6431 10.5216 53.5396 9.92668 54.2052C9.33173 54.8709 9.25413 56.0535 9.75335 56.8468L233.564 412.483C234.063 413.276 234.95 413.38 235.545 412.714C236.14 412.048 236.218 410.866 235.718 410.072Z" fill="url(#paint36_linear_26_1434)"/>
<path d="M468.602 766.627L406.774 668.382C406.275 667.589 405.388 667.485 404.793 668.151C404.198 668.816 404.12 669.999 404.62 670.792L466.448 769.038C466.947 769.831 467.834 769.934 468.429 769.269C469.024 768.603 469.101 767.42 468.602 766.627Z" fill="url(#paint37_linear_26_1434)"/>
<path d="M199.948 354.734L129.804 243.275C129.304 242.481 128.417 242.378 127.822 243.044C127.227 243.709 127.15 244.892 127.649 245.685L197.793 357.145C198.292 357.938 199.179 358.041 199.774 357.376C200.369 356.71 200.447 355.527 199.948 354.734Z" fill="url(#paint38_linear_26_1434)"/>
<path d="M346.963 713.279L307.913 651.23C307.414 650.436 306.527 650.333 305.932 650.999C305.337 651.664 305.26 652.847 305.759 653.64L344.808 715.69C345.308 716.483 346.195 716.586 346.789 715.921C347.384 715.255 347.462 714.073 346.963 713.279Z" fill="url(#paint39_linear_26_1434)"/>
<path d="M367.273 418.194L331.478 361.315C330.979 360.522 330.092 360.418 329.497 361.084C328.902 361.75 328.824 362.932 329.324 363.725L365.119 420.604C365.618 421.398 366.505 421.501 367.1 420.835C367.695 420.17 367.772 418.987 367.273 418.194Z" fill="url(#paint40_linear_26_1434)"/>
<path d="M451.061 306.947L323.066 103.562C322.566 102.769 321.679 102.665 321.084 103.331C320.489 103.997 320.412 105.179 320.911 105.972L448.906 309.357C449.405 310.151 450.292 310.254 450.887 309.588C451.482 308.923 451.56 307.74 451.061 306.947Z" fill="url(#paint41_linear_26_1434)"/>
<path d="M203.204 485.981L167.047 428.528C166.548 427.734 165.661 427.631 165.066 428.297C164.471 428.962 164.394 430.145 164.893 430.938L201.05 488.392C201.549 489.185 202.436 489.288 203.031 488.623C203.626 487.957 203.703 486.774 203.204 485.981Z" fill="url(#paint42_linear_26_1434)"/>
<path d="M362.407 530.51L236.22 329.998C235.72 329.205 234.833 329.102 234.238 329.767C233.643 330.433 233.566 331.616 234.065 332.409L360.252 532.921C360.751 533.714 361.638 533.818 362.233 533.152C362.828 532.486 362.906 531.304 362.407 530.51Z" fill="url(#paint43_linear_26_1434)"/>
<path d="M163.227 508.368L145.149 479.641C144.65 478.848 143.763 478.744 143.168 479.41C142.573 480.076 142.495 481.258 142.994 482.051L161.073 510.778C161.572 511.571 162.459 511.675 163.054 511.009C163.649 510.344 163.727 509.161 163.227 508.368Z" fill="url(#paint44_linear_26_1434)"/>
<path d="M211.642 245.981L175.485 188.528C174.986 187.734 174.099 187.631 173.504 188.297C172.909 188.962 172.831 190.145 173.33 190.938L209.487 248.392C209.986 249.185 210.873 249.288 211.468 248.623C212.063 247.957 212.141 246.774 211.642 245.981Z" fill="url(#paint45_linear_26_1434)"/>
<path d="M321.87 554.473L254.257 447.036C253.757 446.242 252.87 446.139 252.275 446.804C251.68 447.47 251.603 448.653 252.102 449.446L319.715 556.884C320.214 557.677 321.101 557.78 321.696 557.115C322.291 556.449 322.369 555.267 321.87 554.473Z" fill="url(#paint46_linear_26_1434)"/>
<path d="M466.291 584.299L380.961 448.709C380.461 447.916 379.574 447.813 378.979 448.478C378.385 449.144 378.307 450.327 378.806 451.12L464.136 586.71C464.635 587.503 465.522 587.606 466.117 586.941C466.712 586.275 466.79 585.093 466.291 584.299Z" fill="url(#paint47_linear_26_1434)"/>
<path d="M198.436 868.956L26.6907 596.053C26.1915 595.259 25.3045 595.156 24.7096 595.822C24.1146 596.487 24.037 597.67 24.5362 598.463L196.281 871.367C196.78 872.16 197.667 872.263 198.262 871.598C198.857 870.932 198.935 869.749 198.436 868.956Z" fill="url(#paint48_linear_26_1434)"/>
<path d="M417.835 550.247L328.166 407.762C327.667 406.969 326.78 406.866 326.185 407.531C325.59 408.197 325.512 409.379 326.012 410.173L415.681 552.657C416.18 553.45 417.067 553.554 417.662 552.888C418.257 552.222 418.334 551.04 417.835 550.247Z" fill="url(#paint49_linear_26_1434)"/>
<path d="M224.821 591.14L201.68 554.369C201.181 553.576 200.294 553.473 199.699 554.138C199.104 554.804 199.027 555.987 199.526 556.78L222.666 593.55C223.166 594.343 224.053 594.447 224.647 593.781C225.242 593.115 225.32 591.933 224.821 591.14Z" fill="url(#paint50_linear_26_1434)"/>
<path d="M219.631 779.082L68.4954 538.927C67.9962 538.134 67.1092 538.03 66.5143 538.696C65.9193 539.361 65.8417 540.544 66.3409 541.337L217.476 781.492C217.976 782.286 218.863 782.389 219.458 781.724C220.052 781.058 220.13 779.875 219.631 779.082Z" fill="url(#paint51_linear_26_1434)"/>
<path d="M105.444 758.288L-35.5676 534.22C-36.0668 533.427 -36.9538 533.324 -37.5488 533.989C-38.1437 534.655 -38.2213 535.838 -37.7221 536.631L103.289 760.699C103.789 761.492 104.676 761.596 105.271 760.93C105.866 760.264 105.943 759.082 105.444 758.288Z" fill="url(#paint52_linear_26_1434)"/>
<path d="M56.1106 751.209L25.0157 701.799C24.5165 701.006 23.6295 700.903 23.0346 701.568C22.4396 702.234 22.362 703.417 22.8612 704.21L53.9561 753.62C54.4553 754.413 55.3423 754.517 55.9372 753.851C56.5322 753.185 56.6098 752.003 56.1106 751.209Z" fill="url(#paint53_linear_26_1434)"/>
<path d="M259.39 729.577L159.236 570.432C158.737 569.638 157.85 569.535 157.255 570.2C156.66 570.866 156.582 572.049 157.081 572.842L257.236 731.988C257.735 732.781 258.622 732.884 259.217 732.219C259.812 731.553 259.89 730.371 259.39 729.577Z" fill="url(#paint54_linear_26_1434)"/>
<path d="M125.595 656.717L9.53149 472.292C9.03227 471.499 8.14526 471.395 7.55032 472.061C6.95537 472.726 6.87777 473.909 7.37699 474.702L123.44 659.127C123.94 659.921 124.827 660.024 125.421 659.359C126.016 658.693 126.094 657.51 125.595 656.717Z" fill="url(#paint55_linear_26_1434)"/>
<path d="M53.9602 448.737L8.04108 375.772C7.54186 374.978 6.65486 374.875 6.05991 375.54C5.46497 376.206 5.38736 377.389 5.88659 378.182L51.8057 451.148C52.3049 451.941 53.1919 452.044 53.7869 451.379C54.3818 450.713 54.4594 449.531 53.9602 448.737Z" fill="url(#paint56_linear_26_1434)"/>
<path d="M131.302 724.389L49.9492 595.119C49.45 594.326 48.563 594.223 47.9681 594.888C47.3731 595.554 47.2955 596.737 47.7947 597.53L129.148 726.8C129.647 727.593 130.534 727.697 131.129 727.031C131.724 726.365 131.801 725.183 131.302 724.389Z" fill="url(#paint57_linear_26_1434)"/>
<path d="M265.679 580.725L181.072 446.284C180.573 445.491 179.686 445.387 179.091 446.053C178.496 446.718 178.418 447.901 178.918 448.694L263.525 583.135C264.024 583.929 264.911 584.032 265.506 583.366C266.101 582.701 266.178 581.518 265.679 580.725Z" fill="url(#paint58_linear_26_1434)"/>
<path d="M113.318 636.375L-47.9415 380.133C-48.4407 379.34 -49.3277 379.237 -49.9227 379.902C-50.5176 380.568 -50.5952 381.751 -50.096 382.544L111.163 638.786C111.663 639.579 112.55 639.683 113.145 639.017C113.739 638.351 113.817 637.169 113.318 636.375Z" fill="url(#paint59_linear_26_1434)"/>
<path d="M404.037 410.869L368.965 355.14C368.465 354.346 367.578 354.243 366.983 354.908C366.388 355.574 366.311 356.757 366.81 357.55L401.882 413.28C402.381 414.073 403.268 414.176 403.863 413.511C404.458 412.845 404.536 411.663 404.037 410.869Z" fill="url(#paint60_linear_26_1434)"/>
<path d="M212.768 415.894L196.859 390.615C196.359 389.821 195.472 389.718 194.877 390.384C194.283 391.049 194.205 392.232 194.704 393.025L210.613 418.305C211.112 419.098 211.999 419.201 212.594 418.536C213.189 417.87 213.267 416.687 212.768 415.894Z" fill="url(#paint61_linear_26_1434)"/>
<path d="M456.627 528.402L355.749 368.107C355.25 367.314 354.363 367.21 353.768 367.876C353.173 368.541 353.096 369.724 353.595 370.517L454.472 530.812C454.972 531.605 455.859 531.709 456.454 531.043C457.049 530.378 457.126 529.195 456.627 528.402Z" fill="url(#paint62_linear_26_1434)"/>
<path d="M182.009 411.812L135.367 337.697C134.868 336.904 133.981 336.8 133.386 337.466C132.791 338.132 132.713 339.314 133.213 340.107L179.855 414.222C180.354 415.016 181.241 415.119 181.836 414.453C182.431 413.788 182.509 412.605 182.009 411.812Z" fill="url(#paint63_linear_26_1434)"/>
<path d="M361.225 789.542L302.651 696.467C302.152 695.674 301.265 695.571 300.67 696.236C300.075 696.902 299.997 698.084 300.497 698.878L359.071 791.952C359.57 792.745 360.457 792.849 361.052 792.183C361.647 791.518 361.724 790.335 361.225 789.542Z" fill="url(#paint64_linear_26_1434)"/>
<path d="M362.212 638.357L346.664 613.652C346.165 612.859 345.278 612.755 344.683 613.421C344.088 614.086 344.011 615.269 344.51 616.062L360.057 640.767C360.557 641.561 361.444 641.664 362.039 640.998C362.633 640.333 362.711 639.15 362.212 638.357Z" fill="url(#paint65_linear_26_1434)"/>
<path d="M352.366 651.302L291.261 554.206C290.761 553.413 289.874 553.31 289.28 553.975C288.685 554.641 288.607 555.823 289.106 556.617L350.211 653.713C350.71 654.506 351.597 654.61 352.192 653.944C352.787 653.278 352.865 652.096 352.366 651.302Z" fill="url(#paint66_linear_26_1434)"/>
<path d="M379.545 324.72L287.707 178.789C287.207 177.995 286.32 177.892 285.725 178.558C285.13 179.223 285.053 180.406 285.552 181.199L377.39 327.131C377.89 327.924 378.777 328.027 379.371 327.362C379.966 326.696 380.044 325.513 379.545 324.72Z" fill="url(#paint67_linear_26_1434)"/>
<path d="M320.119 304.569L188.508 95.4393C188.009 94.6461 187.122 94.5426 186.527 95.2082C185.932 95.8738 185.854 97.0565 186.353 97.8498L317.964 306.98C318.463 307.773 319.35 307.877 319.945 307.211C320.54 306.545 320.618 305.363 320.119 304.569Z" fill="url(#paint68_linear_26_1434)"/>
<path d="M329.74 572.115L171.011 319.894C170.512 319.101 169.625 318.998 169.03 319.663C168.435 320.329 168.358 321.512 168.857 322.305L327.585 574.525C328.085 575.318 328.972 575.422 329.566 574.756C330.161 574.09 330.239 572.908 329.74 572.115Z" fill="url(#paint69_linear_26_1434)"/>
<path d="M119.472 448.577L77.5297 381.931C77.0305 381.138 76.1435 381.035 75.5485 381.7C74.9536 382.366 74.876 383.549 75.3752 384.342L117.317 450.988C117.816 451.781 118.703 451.884 119.298 451.219C119.893 450.553 119.971 449.371 119.472 448.577Z" fill="url(#paint70_linear_26_1434)"/>
<path d="M113.605 651.669L58.6465 564.34C58.1473 563.547 57.2603 563.443 56.6653 564.109C56.0704 564.774 55.9928 565.957 56.492 566.75L111.45 654.079C111.95 654.873 112.837 654.976 113.431 654.311C114.026 653.645 114.104 652.462 113.605 651.669Z" fill="url(#paint71_linear_26_1434)"/>
<path d="M348.949 447.656L255.303 298.852C254.803 298.059 253.916 297.956 253.321 298.621C252.726 299.287 252.649 300.47 253.148 301.263L346.794 450.067C347.293 450.86 348.18 450.964 348.775 450.298C349.37 449.632 349.448 448.45 348.949 447.656Z" fill="url(#paint72_linear_26_1434)"/>
<path d="M135.684 615.093L98.4424 555.916C97.9432 555.123 97.0562 555.019 96.4612 555.685C95.8663 556.35 95.7887 557.533 96.2879 558.326L133.529 617.503C134.029 618.297 134.916 618.4 135.511 617.734C136.106 617.069 136.183 615.886 135.684 615.093Z" fill="url(#paint73_linear_26_1434)"/>
<path d="M436.638 660.035L329.614 489.973C329.114 489.18 328.227 489.077 327.632 489.742C327.037 490.408 326.96 491.591 327.459 492.384L434.483 662.446C434.982 663.239 435.869 663.343 436.464 662.677C437.059 662.011 437.137 660.829 436.638 660.035Z" fill="url(#paint74_linear_26_1434)"/>
<path d="M483.186 530.188L398.94 396.321C398.441 395.528 397.554 395.424 396.959 396.09C396.364 396.756 396.287 397.938 396.786 398.732L481.031 532.598C481.531 533.391 482.418 533.495 483.012 532.829C483.607 532.163 483.685 530.981 483.186 530.188Z" fill="url(#paint75_linear_26_1434)"/>
<path d="M361.666 382.549L276.336 246.959C275.836 246.166 274.949 246.063 274.354 246.728C273.76 247.394 273.682 248.577 274.181 249.37L359.511 384.96C360.01 385.753 360.897 385.856 361.492 385.191C362.087 384.525 362.165 383.343 361.666 382.549Z" fill="url(#paint76_linear_26_1434)"/>
<path d="M306.118 726.897L198.009 555.112C197.51 554.318 196.623 554.215 196.028 554.881C195.433 555.546 195.355 556.729 195.854 557.522L303.963 729.308C304.462 730.101 305.349 730.204 305.944 729.539C306.539 728.873 306.617 727.69 306.118 726.897Z" fill="url(#paint77_linear_26_1434)"/>
</g>
<defs>
<linearGradient id="paint0_linear_26_1434" x1="224.72" y1="0" x2="224.72" y2="872.036" gradientUnits="userSpaceOnUse">
<stop stop-color="#00C6BA"/>
<stop offset="1" stop-color="#202020"/>
</linearGradient>
<linearGradient id="paint1_linear_26_1434" x1="782.916" y1="-1.7091e+06" x2="2364.21" y2="-1.7091e+06" gradientUnits="userSpaceOnUse">
<stop/>
<stop offset="0.45" stop-color="#323232"/>
<stop offset="1" stop-color="#00C6BA"/>
</linearGradient>
<linearGradient id="paint2_linear_26_1434" x1="628.536" y1="-3.15634e+06" x2="1437.79" y2="-3.15634e+06" gradientUnits="userSpaceOnUse">
<stop/>
<stop offset="0.45" stop-color="#323232"/>
<stop offset="1" stop-color="#00C6BA"/>
</linearGradient>
<linearGradient id="paint3_linear_26_1434" x1="-1851.37" y1="-1.33927e+06" x2="72.7168" y2="-1.33927e+06" gradientUnits="userSpaceOnUse">
<stop/>
<stop offset="0.45" stop-color="#323232"/>
<stop offset="1" stop-color="#00C6BA"/>
</linearGradient>
<linearGradient id="paint4_linear_26_1434" x1="673.43" y1="-3.16872e+06" x2="1473.27" y2="-3.16872e+06" gradientUnits="userSpaceOnUse">
<stop/>
<stop offset="0.45" stop-color="#323232"/>
<stop offset="1" stop-color="#00C6BA"/>
</linearGradient>
<linearGradient id="paint5_linear_26_1434" x1="730.948" y1="-2.56274e+06" x2="1710.11" y2="-2.56274e+06" gradientUnits="userSpaceOnUse">
<stop/>
<stop offset="0.45" stop-color="#323232"/>
<stop offset="1" stop-color="#00C6BA"/>
</linearGradient>
<linearGradient id="paint6_linear_26_1434" x1="845.881" y1="-751608" x2="5014.74" y2="-751608" gradientUnits="userSpaceOnUse">
<stop/>
<stop offset="0.45" stop-color="#323232"/>
<stop offset="1" stop-color="#00C6BA"/>
</linearGradient>
<linearGradient id="paint7_linear_26_1434" x1="-48.2866" y1="-3.45527e+06" x2="664.524" y2="-3.45527e+06" gradientUnits="userSpaceOnUse">
<stop/>
<stop offset="0.45" stop-color="#323232"/>
<stop offset="1" stop-color="#00C6BA"/>
</linearGradient>
<linearGradient id="paint8_linear_26_1434" x1="321.305" y1="-2.99178e+06" x2="1132.94" y2="-2.99178e+06" gradientUnits="userSpaceOnUse">
<stop/>
<stop offset="0.45" stop-color="#323232"/>
<stop offset="1" stop-color="#00C6BA"/>
</linearGradient>
<linearGradient id="paint9_linear_26_1434" x1="284.677" y1="-3.12346e+06" x2="1106.01" y2="-3.12346e+06" gradientUnits="userSpaceOnUse">
<stop/>
<stop offset="0.45" stop-color="#323232"/>
<stop offset="1" stop-color="#00C6BA"/>
</linearGradient>
<linearGradient id="paint10_linear_26_1434" x1="695.504" y1="-2.75311e+06" x2="1588.83" y2="-2.75311e+06" gradientUnits="userSpaceOnUse">
<stop/>
<stop offset="0.45" stop-color="#323232"/>
<stop offset="1" stop-color="#00C6BA"/>
</linearGradient>
<linearGradient id="paint11_linear_26_1434" x1="-443.966" y1="-1.59251e+06" x2="1223.58" y2="-1.59251e+06" gradientUnits="userSpaceOnUse">
<stop/>
<stop offset="0.45" stop-color="#323232"/>
<stop offset="1" stop-color="#00C6BA"/>
</linearGradient>
<linearGradient id="paint12_linear_26_1434" x1="122.366" y1="-2.34517e+06" x2="1222.95" y2="-2.34517e+06" gradientUnits="userSpaceOnUse">
<stop/>
<stop offset="0.45" stop-color="#323232"/>
<stop offset="1" stop-color="#00C6BA"/>
</linearGradient>
<linearGradient id="paint13_linear_26_1434" x1="-108.473" y1="-2.23555e+06" x2="1052.48" y2="-2.23555e+06" gradientUnits="userSpaceOnUse">
<stop/>
<stop offset="0.45" stop-color="#323232"/>
<stop offset="1" stop-color="#00C6BA"/>
</linearGradient>
<linearGradient id="paint14_linear_26_1434" x1="942.967" y1="-2.99536e+06" x2="1786.97" y2="-2.99536e+06" gradientUnits="userSpaceOnUse">
<stop/>
<stop offset="0.45" stop-color="#323232"/>
<stop offset="1" stop-color="#00C6BA"/>
</linearGradient>
<linearGradient id="paint15_linear_26_1434" x1="2850.06" y1="-398782" x2="14314.4" y2="-398782" gradientUnits="userSpaceOnUse">
<stop/>
<stop offset="0.45" stop-color="#323232"/>
<stop offset="1" stop-color="#00C6BA"/>
</linearGradient>
<linearGradient id="paint16_linear_26_1434" x1="999.554" y1="-995342" x2="4162.14" y2="-995342" gradientUnits="userSpaceOnUse">
<stop/>
<stop offset="0.45" stop-color="#323232"/>
<stop offset="1" stop-color="#00C6BA"/>
</linearGradient>
<linearGradient id="paint17_linear_26_1434" x1="1572.67" y1="-1.89642e+06" x2="2895.48" y2="-1.89642e+06" gradientUnits="userSpaceOnUse">
<stop/>
<stop offset="0.45" stop-color="#323232"/>
<stop offset="1" stop-color="#00C6BA"/>
</linearGradient>
<linearGradient id="paint18_linear_26_1434" x1="1136.96" y1="-1.60533e+06" x2="2774.72" y2="-1.60533e+06" gradientUnits="userSpaceOnUse">
<stop/>
<stop offset="0.45" stop-color="#323232"/>
<stop offset="1" stop-color="#00C6BA"/>
</linearGradient>
<linearGradient id="paint19_linear_26_1434" x1="-3355.69" y1="-848578" x2="171.808" y2="-848578" gradientUnits="userSpaceOnUse">
<stop/>
<stop offset="0.45" stop-color="#323232"/>
<stop offset="1" stop-color="#00C6BA"/>
</linearGradient>
<linearGradient id="paint20_linear_26_1434" x1="182.338" y1="-3.55477e+06" x2="855.064" y2="-3.55477e+06" gradientUnits="userSpaceOnUse">
<stop/>
<stop offset="0.45" stop-color="#323232"/>
<stop offset="1" stop-color="#00C6BA"/>
</linearGradient>
<linearGradient id="paint21_linear_26_1434" x1="-793.76" y1="-3.3569e+06" x2="-54.1232" y2="-3.3569e+06" gradientUnits="userSpaceOnUse">
<stop/>
<stop offset="0.45" stop-color="#323232"/>
<stop offset="1" stop-color="#00C6BA"/>
</linearGradient>
<linearGradient id="paint22_linear_26_1434" x1="-1512.13" y1="-1.4311e+06" x2="398.596" y2="-1.4311e+06" gradientUnits="userSpaceOnUse">
<stop/>
<stop offset="0.45" stop-color="#323232"/>
<stop offset="1" stop-color="#00C6BA"/>
</linearGradient>
<linearGradient id="paint23_linear_26_1434" x1="-3222.32" y1="-928544" x2="-130.805" y2="-928544" gradientUnits="userSpaceOnUse">
<stop/>
<stop offset="0.45" stop-color="#323232"/>
<stop offset="1" stop-color="#00C6BA"/>
</linearGradient>
<linearGradient id="paint24_linear_26_1434" x1="-523.864" y1="-2.60608e+06" x2="424.912" y2="-2.60608e+06" gradientUnits="userSpaceOnUse">
<stop/>
<stop offset="0.45" stop-color="#323232"/>
<stop offset="1" stop-color="#00C6BA"/>
</linearGradient>
<linearGradient id="paint25_linear_26_1434" x1="555.638" y1="-808116" x2="4273.81" y2="-808116" gradientUnits="userSpaceOnUse">
<stop/>
<stop offset="0.45" stop-color="#323232"/>
<stop offset="1" stop-color="#00C6BA"/>
</linearGradient>
<linearGradient id="paint26_linear_26_1434" x1="-639.384" y1="-1.70204e+06" x2="847.886" y2="-1.70204e+06" gradientUnits="userSpaceOnUse">
<stop/>
<stop offset="0.45" stop-color="#323232"/>
<stop offset="1" stop-color="#00C6BA"/>
</linearGradient>
<linearGradient id="paint27_linear_26_1434" x1="51.6449" y1="-2.91356e+06" x2="939.209" y2="-2.91356e+06" gradientUnits="userSpaceOnUse">
<stop/>
<stop offset="0.45" stop-color="#323232"/>
<stop offset="1" stop-color="#00C6BA"/>
</linearGradient>
<linearGradient id="paint28_linear_26_1434" x1="1008.93" y1="-2.50676e+06" x2="2039.44" y2="-2.50676e+06" gradientUnits="userSpaceOnUse">
<stop/>
<stop offset="0.45" stop-color="#323232"/>
<stop offset="1" stop-color="#00C6BA"/>
</linearGradient>
<linearGradient id="paint29_linear_26_1434" x1="-111.159" y1="-2.68099e+06" x2="809.058" y2="-2.68099e+06" gradientUnits="userSpaceOnUse">
<stop/>
<stop offset="0.45" stop-color="#323232"/>
<stop offset="1" stop-color="#00C6BA"/>
</linearGradient>
<linearGradient id="paint30_linear_26_1434" x1="554.06" y1="-1.74817e+06" x2="1943.68" y2="-1.74817e+06" gradientUnits="userSpaceOnUse">
<stop/>
<stop offset="0.45" stop-color="#323232"/>
<stop offset="1" stop-color="#00C6BA"/>
</linearGradient>
<linearGradient id="paint31_linear_26_1434" x1="377.769" y1="-1.63533e+06" x2="2097.43" y2="-1.63533e+06" gradientUnits="userSpaceOnUse">
<stop/>
<stop offset="0.45" stop-color="#323232"/>
<stop offset="1" stop-color="#00C6BA"/>
</linearGradient>
<linearGradient id="paint32_linear_26_1434" x1="-1437.78" y1="-840643" x2="2437.51" y2="-840643" gradientUnits="userSpaceOnUse">
<stop/>
<stop offset="0.45" stop-color="#323232"/>
<stop offset="1" stop-color="#00C6BA"/>
</linearGradient>
<linearGradient id="paint33_linear_26_1434" x1="1099.9" y1="-1.6403e+06" x2="2654.39" y2="-1.6403e+06" gradientUnits="userSpaceOnUse">
<stop/>
<stop offset="0.45" stop-color="#323232"/>
<stop offset="1" stop-color="#00C6BA"/>
</linearGradient>
<linearGradient id="paint34_linear_26_1434" x1="-920.386" y1="-2.2216e+06" x2="221.295" y2="-2.2216e+06" gradientUnits="userSpaceOnUse">
<stop/>
<stop offset="0.45" stop-color="#323232"/>
<stop offset="1" stop-color="#00C6BA"/>
</linearGradient>
<linearGradient id="paint35_linear_26_1434" x1="1173.69" y1="-625773" x2="6788.89" y2="-625773" gradientUnits="userSpaceOnUse">
<stop/>
<stop offset="0.45" stop-color="#323232"/>
<stop offset="1" stop-color="#00C6BA"/>
</linearGradient>
<linearGradient id="paint36_linear_26_1434" x1="107.872" y1="-5.43758e+06" x2="548.809" y2="-5.43758e+06" gradientUnits="userSpaceOnUse">
<stop/>
<stop offset="0.45" stop-color="#323232"/>
<stop offset="1" stop-color="#00C6BA"/>
</linearGradient>
<linearGradient id="paint37_linear_26_1434" x1="88.7108" y1="-1.78009e+06" x2="1652.03" y2="-1.78009e+06" gradientUnits="userSpaceOnUse">
<stop/>
<stop offset="0.45" stop-color="#323232"/>
<stop offset="1" stop-color="#00C6BA"/>
</linearGradient>
<linearGradient id="paint38_linear_26_1434" x1="-97.4347" y1="-1.79674e+06" x2="1285.2" y2="-1.79674e+06" gradientUnits="userSpaceOnUse">
<stop/>
<stop offset="0.45" stop-color="#323232"/>
<stop offset="1" stop-color="#00C6BA"/>
</linearGradient>
<linearGradient id="paint39_linear_26_1434" x1="738.486" y1="-1.19382e+06" x2="3173.4" y2="-1.19382e+06" gradientUnits="userSpaceOnUse">
<stop/>
<stop offset="0.45" stop-color="#323232"/>
<stop offset="1" stop-color="#00C6BA"/>
</linearGradient>
<linearGradient id="paint40_linear_26_1434" x1="-1487" y1="-1.0549e+06" x2="1158.63" y2="-1.0549e+06" gradientUnits="userSpaceOnUse">
<stop/>
<stop offset="0.45" stop-color="#323232"/>
<stop offset="1" stop-color="#00C6BA"/>
</linearGradient>
<linearGradient id="paint41_linear_26_1434" x1="-750.933" y1="-3.22514e+06" x2="15.4871" y2="-3.22514e+06" gradientUnits="userSpaceOnUse">
<stop/>
<stop offset="0.45" stop-color="#323232"/>
<stop offset="1" stop-color="#00C6BA"/>
</linearGradient>
<linearGradient id="paint42_linear_26_1434" x1="531.31" y1="-1.02831e+06" x2="3151.74" y2="-1.02831e+06" gradientUnits="userSpaceOnUse">
<stop/>
<stop offset="0.45" stop-color="#323232"/>
<stop offset="1" stop-color="#00C6BA"/>
</linearGradient>
<linearGradient id="paint43_linear_26_1434" x1="-55.8658" y1="-3.20709e+06" x2="721.38" y2="-3.20709e+06" gradientUnits="userSpaceOnUse">
<stop/>
<stop offset="0.45" stop-color="#323232"/>
<stop offset="1" stop-color="#00C6BA"/>
</linearGradient>
<linearGradient id="paint44_linear_26_1434" x1="1850.58" y1="-595601" x2="6853.21" y2="-595601" gradientUnits="userSpaceOnUse">
<stop/>
<stop offset="0.45" stop-color="#323232"/>
<stop offset="1" stop-color="#00C6BA"/>
</linearGradient>
<linearGradient id="paint45_linear_26_1434" x1="-1224.38" y1="-975111" x2="1396.05" y2="-975111" gradientUnits="userSpaceOnUse">
<stop/>
<stop offset="0.45" stop-color="#323232"/>
<stop offset="1" stop-color="#00C6BA"/>
</linearGradient>
<linearGradient id="paint46_linear_26_1434" x1="34.1247" y1="-1.82142e+06" x2="1467.17" y2="-1.82142e+06" gradientUnits="userSpaceOnUse">
<stop/>
<stop offset="0.45" stop-color="#323232"/>
<stop offset="1" stop-color="#00C6BA"/>
</linearGradient>
<linearGradient id="paint47_linear_26_1434" x1="-429.463" y1="-2.29014e+06" x2="712.218" y2="-2.29014e+06" gradientUnits="userSpaceOnUse">
<stop/>
<stop offset="0.45" stop-color="#323232"/>
<stop offset="1" stop-color="#00C6BA"/>
</linearGradient>
<linearGradient id="paint48_linear_26_1434" x1="860.42" y1="-4.30725e+06" x2="1433.64" y2="-4.30725e+06" gradientUnits="userSpaceOnUse">
<stop/>
<stop offset="0.45" stop-color="#323232"/>
<stop offset="1" stop-color="#00C6BA"/>
</linearGradient>
<linearGradient id="paint49_linear_26_1434" x1="-311.432" y1="-2.36932e+06" x2="776.097" y2="-2.36932e+06" gradientUnits="userSpaceOnUse">
<stop/>
<stop offset="0.45" stop-color="#323232"/>
<stop offset="1" stop-color="#00C6BA"/>
</linearGradient>
<linearGradient id="paint50_linear_26_1434" x1="1520.69" y1="-753091" x2="5508.3" y2="-753091" gradientUnits="userSpaceOnUse">
<stop/>
<stop offset="0.45" stop-color="#323232"/>
<stop offset="1" stop-color="#00C6BA"/>
</linearGradient>
<linearGradient id="paint51_linear_26_1434" x1="745.739" y1="-3.80783e+06" x2="1396.2" y2="-3.80783e+06" gradientUnits="userSpaceOnUse">
<stop/>
<stop offset="0.45" stop-color="#323232"/>
<stop offset="1" stop-color="#00C6BA"/>
</linearGradient>
<linearGradient id="paint52_linear_26_1434" x1="1029.26" y1="-3.52931e+06" x2="1725.83" y2="-3.52931e+06" gradientUnits="userSpaceOnUse">
<stop/>
<stop offset="0.45" stop-color="#323232"/>
<stop offset="1" stop-color="#00C6BA"/>
</linearGradient>
<linearGradient id="paint53_linear_26_1434" x1="4303.52" y1="-925231" x2="7327.09" y2="-925231" gradientUnits="userSpaceOnUse">
<stop/>
<stop offset="0.45" stop-color="#323232"/>
<stop offset="1" stop-color="#00C6BA"/>
</linearGradient>
<linearGradient id="paint54_linear_26_1434" x1="756.472" y1="-2.6087e+06" x2="1732.16" y2="-2.6087e+06" gradientUnits="userSpaceOnUse">
<stop/>
<stop offset="0.45" stop-color="#323232"/>
<stop offset="1" stop-color="#00C6BA"/>
</linearGradient>
<linearGradient id="paint55_linear_26_1434" x1="917.646" y1="-2.92472e+06" x2="1761.65" y2="-2.92472e+06" gradientUnits="userSpaceOnUse">
<stop/>
<stop offset="0.45" stop-color="#323232"/>
<stop offset="1" stop-color="#00C6BA"/>
</linearGradient>
<linearGradient id="paint56_linear_26_1434" x1="1360.74" y1="-1.20315e+06" x2="3445.17" y2="-1.20315e+06" gradientUnits="userSpaceOnUse">
<stop/>
<stop offset="0.45" stop-color="#323232"/>
<stop offset="1" stop-color="#00C6BA"/>
</linearGradient>
<linearGradient id="paint57_linear_26_1434" x1="1412.63" y1="-2.12524e+06" x2="2608.91" y2="-2.12524e+06" gradientUnits="userSpaceOnUse">
<stop/>
<stop offset="0.45" stop-color="#323232"/>
<stop offset="1" stop-color="#00C6BA"/>
</linearGradient>
<linearGradient id="paint58_linear_26_1434" x1="375.532" y1="-2.21009e+06" x2="1526.77" y2="-2.21009e+06" gradientUnits="userSpaceOnUse">
<stop/>
<stop offset="0.45" stop-color="#323232"/>
<stop offset="1" stop-color="#00C6BA"/>
</linearGradient>
<linearGradient id="paint59_linear_26_1434" x1="709.732" y1="-3.97997e+06" x2="1319.81" y2="-3.97997e+06" gradientUnits="userSpaceOnUse">
<stop/>
<stop offset="0.45" stop-color="#323232"/>
<stop offset="1" stop-color="#00C6BA"/>
</linearGradient>
<linearGradient id="paint60_linear_26_1434" x1="-1925.19" y1="-1.04758e+06" x2="772.312" y2="-1.04758e+06" gradientUnits="userSpaceOnUse">
<stop/>
<stop offset="0.45" stop-color="#323232"/>
<stop offset="1" stop-color="#00C6BA"/>
</linearGradient>
<linearGradient id="paint61_linear_26_1434" x1="-319.955" y1="-538395" x2="5295.25" y2="-538395" gradientUnits="userSpaceOnUse">
<stop/>
<stop offset="0.45" stop-color="#323232"/>
<stop offset="1" stop-color="#00C6BA"/>
</linearGradient>
<linearGradient id="paint62_linear_26_1434" x1="-446.673" y1="-2.64009e+06" x2="522.148" y2="-2.64009e+06" gradientUnits="userSpaceOnUse">
<stop/>
<stop offset="0.45" stop-color="#323232"/>
<stop offset="1" stop-color="#00C6BA"/>
</linearGradient>
<linearGradient id="paint63_linear_26_1434" x1="206.24" y1="-1.25128e+06" x2="2259.56" y2="-1.25128e+06" gradientUnits="userSpaceOnUse">
<stop/>
<stop offset="0.45" stop-color="#323232"/>
<stop offset="1" stop-color="#00C6BA"/>
</linearGradient>
<linearGradient id="paint64_linear_26_1434" x1="812.904" y1="-1.67553e+06" x2="2460.48" y2="-1.67553e+06" gradientUnits="userSpaceOnUse">
<stop/>
<stop offset="0.45" stop-color="#323232"/>
<stop offset="1" stop-color="#00C6BA"/>
</linearGradient>
<linearGradient id="paint65_linear_26_1434" x1="24.0934" y1="-627953" x2="5756.28" y2="-627953" gradientUnits="userSpaceOnUse">
<stop/>
<stop offset="0.45" stop-color="#323232"/>
<stop offset="1" stop-color="#00C6BA"/>
</linearGradient>
<linearGradient id="paint66_linear_26_1434" x1="254.765" y1="-1.70021e+06" x2="1836.06" y2="-1.70021e+06" gradientUnits="userSpaceOnUse">
<stop/>
<stop offset="0.45" stop-color="#323232"/>
<stop offset="1" stop-color="#00C6BA"/>
</linearGradient>
<linearGradient id="paint67_linear_26_1434" x1="-794.06" y1="-2.35607e+06" x2="268.276" y2="-2.35607e+06" gradientUnits="userSpaceOnUse">
<stop/>
<stop offset="0.45" stop-color="#323232"/>
<stop offset="1" stop-color="#00C6BA"/>
</linearGradient>
<linearGradient id="paint68_linear_26_1434" x1="-382.985" y1="-3.26909e+06" x2="362.665" y2="-3.26909e+06" gradientUnits="userSpaceOnUse">
<stop/>
<stop offset="0.45" stop-color="#323232"/>
<stop offset="1" stop-color="#00C6BA"/>
</linearGradient>
<linearGradient id="paint69_linear_26_1434" x1="134.864" y1="-3.97256e+06" x2="754.56" y2="-3.97256e+06" gradientUnits="userSpaceOnUse">
<stop/>
<stop offset="0.45" stop-color="#323232"/>
<stop offset="1" stop-color="#00C6BA"/>
</linearGradient>
<linearGradient id="paint70_linear_26_1434" x1="936.459" y1="-1.12981e+06" x2="3210.38" y2="-1.12981e+06" gradientUnits="userSpaceOnUse">
<stop/>
<stop offset="0.45" stop-color="#323232"/>
<stop offset="1" stop-color="#00C6BA"/>
</linearGradient>
<linearGradient id="paint71_linear_26_1434" x1="1751.16" y1="-1.48159e+06" x2="3503.68" y2="-1.48159e+06" gradientUnits="userSpaceOnUse">
<stop/>
<stop offset="0.45" stop-color="#323232"/>
<stop offset="1" stop-color="#00C6BA"/>
</linearGradient>
<linearGradient id="paint72_linear_26_1434" x1="-320.359" y1="-2.41772e+06" x2="721.857" y2="-2.41772e+06" gradientUnits="userSpaceOnUse">
<stop/>
<stop offset="0.45" stop-color="#323232"/>
<stop offset="1" stop-color="#00C6BA"/>
</linearGradient>
<linearGradient id="paint73_linear_26_1434" x1="2010.61" y1="-1.06293e+06" x2="4558.25" y2="-1.06293e+06" gradientUnits="userSpaceOnUse">
<stop/>
<stop offset="0.45" stop-color="#323232"/>
<stop offset="1" stop-color="#00C6BA"/>
</linearGradient>
<linearGradient id="paint74_linear_26_1434" x1="-24.8302" y1="-2.80918e+06" x2="889.273" y2="-2.80918e+06" gradientUnits="userSpaceOnUse">
<stop/>
<stop offset="0.45" stop-color="#323232"/>
<stop offset="1" stop-color="#00C6BA"/>
</linearGradient>
<linearGradient id="paint75_linear_26_1434" x1="-673.547" y1="-2.25727e+06" x2="482.524" y2="-2.25727e+06" gradientUnits="userSpaceOnUse">
<stop/>
<stop offset="0.45" stop-color="#323232"/>
<stop offset="1" stop-color="#00C6BA"/>
</linearGradient>
<linearGradient id="paint76_linear_26_1434" x1="-618.982" y1="-2.21079e+06" x2="522.699" y2="-2.21079e+06" gradientUnits="userSpaceOnUse">
<stop/>
<stop offset="0.45" stop-color="#323232"/>
<stop offset="1" stop-color="#00C6BA"/>
</linearGradient>
<linearGradient id="paint77_linear_26_1434" x1="7260.79" y1="-7019.71" x2="7504.02" y2="-6802.31" gradientUnits="userSpaceOnUse">
<stop/>
<stop offset="0.45" stop-color="#323232"/>
<stop offset="1" stop-color="#00C6BA"/>
</linearGradient>
</defs>
</svg>
