<svg xmlns="http://www.w3.org/2000/svg" xmlns:xlink="http://www.w3.org/1999/xlink" width="500" zoomAndPan="magnify" viewBox="0 0 375 95.999999" height="128" preserveAspectRatio="xMidYMid meet" version="1.0"><defs><g/></defs><g fill="#e4e2dd" fill-opacity="1"><g transform="translate(2.225189, 45.120001)"><g><path d="M 44.796875 -0.234375 L 44.796875 0 L 32.390625 0 L 20.6875 -11.09375 L 14.8125 -11.09375 L 14.8125 0 L 5.171875 0 L 5.171875 -31.953125 L 31.109375 -31.953125 C 35.648438 -31.953125 38.988281 -31.082031 41.125 -29.34375 C 43.257812 -27.613281 44.328125 -25.007812 44.328125 -21.53125 C 44.328125 -18.300781 43.410156 -15.816406 41.578125 -14.078125 C 39.742188 -12.335938 36.882812 -11.359375 33 -11.140625 Z M 34.171875 -24.53125 L 14.8125 -24.53125 L 14.8125 -17.8125 L 34.171875 -17.8125 Z M 34.171875 -24.53125 "/></g></g></g><g fill="#e4e2dd" fill-opacity="1"><g transform="translate(48.465266, 45.120001)"><g><path d="M 25.46875 0.75 C 19.832031 0.75 15.421875 0.226562 12.234375 -0.8125 C 9.054688 -1.863281 6.769531 -3.585938 5.375 -5.984375 C 3.988281 -8.390625 3.296875 -11.722656 3.296875 -15.984375 C 3.296875 -20.273438 3.984375 -23.617188 5.359375 -26.015625 C 6.734375 -28.410156 9.007812 -30.125 12.1875 -31.15625 C 15.375 -32.195312 19.800781 -32.71875 25.46875 -32.71875 C 31.144531 -32.71875 35.570312 -32.195312 38.75 -31.15625 C 41.925781 -30.125 44.203125 -28.410156 45.578125 -26.015625 C 46.960938 -23.617188 47.65625 -20.273438 47.65625 -15.984375 C 47.65625 -11.722656 46.960938 -8.390625 45.578125 -5.984375 C 44.203125 -3.585938 41.925781 -1.863281 38.75 -0.8125 C 35.570312 0.226562 31.144531 0.75 25.46875 0.75 Z M 25.46875 -7.703125 C 29.351562 -7.703125 33.238281 -7.796875 37.125 -7.984375 L 37.125 -24.015625 C 32.800781 -24.171875 28.914062 -24.25 25.46875 -24.25 C 22.019531 -24.25 18.148438 -24.171875 13.859375 -24.015625 L 13.859375 -7.984375 C 17.710938 -7.796875 21.582031 -7.703125 25.46875 -7.703125 Z M 25.46875 -7.703125 "/></g></g></g><g fill="#e4e2dd" fill-opacity="1"><g transform="translate(98.370716, 45.120001)"><g><path d="M 15.140625 -31.953125 L 29.09375 -31.953125 L 44.46875 -0.234375 L 44.46875 0 L 33.984375 0 L 31.0625 -6.296875 L 13.015625 -6.296875 L 10.109375 0 L -0.140625 0 L -0.140625 -0.234375 Z M 21.953125 -25.421875 L 16.359375 -13.390625 L 27.78125 -13.390625 L 22.1875 -25.421875 Z M 21.953125 -25.421875 "/></g></g></g><g fill="#e4e2dd" fill-opacity="1"><g transform="translate(141.697279, 45.120001)"><g><path d="M 5.171875 0 L 5.171875 -31.953125 L 28.296875 -31.953125 C 32.835938 -31.953125 36.421875 -31.441406 39.046875 -30.421875 C 41.679688 -29.410156 43.59375 -27.753906 44.78125 -25.453125 C 45.976562 -23.148438 46.578125 -19.992188 46.578125 -15.984375 C 46.578125 -11.972656 45.976562 -8.816406 44.78125 -6.515625 C 43.59375 -4.210938 41.679688 -2.550781 39.046875 -1.53125 C 36.421875 -0.507812 32.835938 0 28.296875 0 Z M 14.8125 -23.828125 L 14.8125 -8.171875 L 36.046875 -8.171875 L 36.046875 -23.828125 Z M 14.8125 -23.828125 "/></g></g></g><g fill="#e4e2dd" fill-opacity="1"><g transform="translate(190.521915, 45.120001)"><g/></g></g><g fill="#e4e2dd" fill-opacity="1"><g transform="translate(204.055468, 45.120001)"><g><path d="M 25.5625 0 L 15.9375 0 L 15.9375 -23.828125 L 0.375 -23.828125 L 0.375 -31.953125 L 41.125 -31.953125 L 41.125 -23.828125 L 25.5625 -23.828125 Z M 25.5625 0 "/></g></g></g><g fill="#e4e2dd" fill-opacity="1"><g transform="translate(244.515503, 45.120001)"><g><path d="M 44.796875 -0.234375 L 44.796875 0 L 32.390625 0 L 20.6875 -11.09375 L 14.8125 -11.09375 L 14.8125 0 L 5.171875 0 L 5.171875 -31.953125 L 31.109375 -31.953125 C 35.648438 -31.953125 38.988281 -31.082031 41.125 -29.34375 C 43.257812 -27.613281 44.328125 -25.007812 44.328125 -21.53125 C 44.328125 -18.300781 43.410156 -15.816406 41.578125 -14.078125 C 39.742188 -12.335938 36.882812 -11.359375 33 -11.140625 Z M 34.171875 -24.53125 L 14.8125 -24.53125 L 14.8125 -17.8125 L 34.171875 -17.8125 Z M 34.171875 -24.53125 "/></g></g></g><g fill="#e4e2dd" fill-opacity="1"><g transform="translate(290.755582, 45.120001)"><g><path d="M 34.453125 0 L 3.0625 0 L 3.0625 -7.703125 L 14.1875 -7.703125 L 14.1875 -24.296875 L 3.0625 -24.296875 L 3.0625 -31.953125 L 34.453125 -31.953125 L 34.453125 -24.296875 L 23.359375 -24.296875 L 23.359375 -7.703125 L 34.453125 -7.703125 Z M 34.453125 0 "/></g></g></g><g fill="#e4e2dd" fill-opacity="1"><g transform="translate(327.221286, 45.120001)"><g><path d="M 5.171875 0 L 5.171875 -31.953125 L 30.78125 -31.953125 C 35.351562 -31.953125 38.703125 -31.023438 40.828125 -29.171875 C 42.960938 -27.328125 44.03125 -24.515625 44.03125 -20.734375 C 44.03125 -16.910156 42.960938 -14.070312 40.828125 -12.21875 C 38.703125 -10.375 35.351562 -9.453125 30.78125 -9.453125 L 14.8125 -9.453125 L 14.8125 0 Z M 14.8125 -24.390625 L 14.8125 -17.015625 L 33.796875 -17.015625 L 33.796875 -24.390625 Z M 14.8125 -24.390625 "/></g></g></g><g fill="#e4e2dd" fill-opacity="1"><g transform="translate(29.998625, 83.369999)"><g><path d="M 5.171875 0 L 5.171875 -31.953125 L 30.78125 -31.953125 C 35.351562 -31.953125 38.703125 -31.023438 40.828125 -29.171875 C 42.960938 -27.328125 44.03125 -24.515625 44.03125 -20.734375 C 44.03125 -16.910156 42.960938 -14.070312 40.828125 -12.21875 C 38.703125 -10.375 35.351562 -9.453125 30.78125 -9.453125 L 14.8125 -9.453125 L 14.8125 0 Z M 14.8125 -24.390625 L 14.8125 -17.015625 L 33.796875 -17.015625 L 33.796875 -24.390625 Z M 14.8125 -24.390625 "/></g></g></g><g fill="#e4e2dd" fill-opacity="1"><g transform="translate(74.499989, 83.369999)"><g><path d="M 37.40625 0 L 5.171875 0 L 5.171875 -31.953125 L 14.8125 -31.953125 L 14.8125 -8.171875 L 37.40625 -8.171875 Z M 37.40625 0 "/></g></g></g><g fill="#e4e2dd" fill-opacity="1"><g transform="translate(111.717578, 83.369999)"><g><path d="M 15.140625 -31.953125 L 29.09375 -31.953125 L 44.46875 -0.234375 L 44.46875 0 L 33.984375 0 L 31.0625 -6.296875 L 13.015625 -6.296875 L 10.109375 0 L -0.140625 0 L -0.140625 -0.234375 Z M 21.953125 -25.421875 L 16.359375 -13.390625 L 27.78125 -13.390625 L 22.1875 -25.421875 Z M 21.953125 -25.421875 "/></g></g></g><g fill="#e4e2dd" fill-opacity="1"><g transform="translate(155.044135, 83.369999)"><g><path d="M 14.421875 0 L 5.171875 0 L 5.171875 -31.953125 L 21.109375 -31.953125 L 35.71875 -6.53125 L 35.953125 -6.53125 L 35.953125 -31.953125 L 45.21875 -31.953125 L 45.21875 0 L 29.28125 0 L 14.65625 -25.421875 L 14.421875 -25.421875 Z M 14.421875 0 "/></g></g></g><g fill="#e4e2dd" fill-opacity="1"><g transform="translate(204.385678, 83.369999)"><g><path d="M 14.421875 0 L 5.171875 0 L 5.171875 -31.953125 L 21.109375 -31.953125 L 35.71875 -6.53125 L 35.953125 -6.53125 L 35.953125 -31.953125 L 45.21875 -31.953125 L 45.21875 0 L 29.28125 0 L 14.65625 -25.421875 L 14.421875 -25.421875 Z M 14.421875 0 "/></g></g></g><g fill="#e4e2dd" fill-opacity="1"><g transform="translate(253.72722, 83.369999)"><g><path d="M 42.203125 0 L 5.171875 0 L 5.171875 -31.953125 L 41.5 -31.953125 L 41.5 -24.15625 L 14.8125 -24.15625 L 14.8125 -19.265625 L 34.265625 -19.265625 L 34.265625 -12.6875 L 14.8125 -12.6875 L 14.8125 -7.796875 L 42.203125 -7.796875 Z M 42.203125 0 "/></g></g></g><g fill="#e4e2dd" fill-opacity="1"><g transform="translate(297.711669, 83.369999)"><g><path d="M 44.796875 -0.234375 L 44.796875 0 L 32.390625 0 L 20.6875 -11.09375 L 14.8125 -11.09375 L 14.8125 0 L 5.171875 0 L 5.171875 -31.953125 L 31.109375 -31.953125 C 35.648438 -31.953125 38.988281 -31.082031 41.125 -29.34375 C 43.257812 -27.613281 44.328125 -25.007812 44.328125 -21.53125 C 44.328125 -18.300781 43.410156 -15.816406 41.578125 -14.078125 C 39.742188 -12.335938 36.882812 -11.359375 33 -11.140625 Z M 34.171875 -24.53125 L 14.8125 -24.53125 L 14.8125 -17.8125 L 34.171875 -17.8125 Z M 34.171875 -24.53125 "/></g></g></g></svg>