<svg width="35" height="36" viewBox="0 0 35 36" fill="none" xmlns="http://www.w3.org/2000/svg">
<g id="Up Arrow Container">
<g id="Up Arrow Content">
<g id="Up Arrow Content_2">
<g id="Up Arrow Content_3">
<path id="Up Arrow Icon" d="M15.9414 1.9082C10.9375 2.42774 6.4668 5.20313 3.78711 9.46875C3.34961 10.166 2.63867 11.6152 2.33789 12.4219C2.02344 13.2695 1.69531 14.5684 1.53125 15.5801C1.33984 16.8105 1.33984 19.0938 1.53125 20.3652C2.06445 23.8242 3.62305 26.9004 6.04297 29.334C6.93164 30.2227 7.58789 30.7695 8.61328 31.4531C11.5801 33.4355 15.3535 34.4063 18.8809 34.0781C22.1484 33.7773 25.1152 32.5879 27.6582 30.5508C28.3418 30.0039 29.5449 28.8145 30.0918 28.1172C34.1113 23.0723 34.8086 16.2637 31.8555 10.5762C30.543 8.0332 28.4922 5.81836 26.0449 4.27344C25.3477 3.83594 23.8984 3.125 23.0918 2.82422C22.2441 2.50977 20.9316 2.18164 19.9609 2.03125C18.9766 1.88086 16.8438 1.8125 15.9414 1.9082ZM19.5781 3.95899C21.5605 4.25977 23.5703 5.02539 25.2109 6.10547C28.6562 8.36133 30.8984 11.8613 31.5273 15.9766C31.6777 16.9746 31.6777 19.0254 31.5273 20.0098C31.0352 23.1406 29.6953 25.8066 27.4941 28.0078C25.293 30.209 22.6406 31.5488 19.4961 32.041C18.5117 32.1914 16.4609 32.1914 15.4492 32.041C9.17383 31.0703 4.40234 26.2988 3.43164 20.0371C3.28125 19.0254 3.28125 16.9883 3.43164 15.9902C4.06055 11.9023 6.30273 8.40234 9.77539 6.11914C11.6758 4.86133 13.8223 4.13672 16.3652 3.86328C16.8984 3.78125 18.9355 3.86328 19.5781 3.95899Z" fill="#E4E2DD"/>
<path id="Up Arrow Icon_2" d="M17.2539 12.0391C17.1445 12.0664 16.9395 12.1758 16.8164 12.2852C16.6934 12.3945 14.834 14.2266 12.7012 16.3594C9.26954 19.8047 8.81836 20.2695 8.75 20.502C8.61329 21.0352 8.92774 21.582 9.44727 21.7188C9.98047 21.8691 9.8711 21.9648 13.8223 18L17.4863 14.3359L21.1504 18C24.1445 20.9941 24.8555 21.6641 25.0469 21.7188C25.7305 21.9102 26.4277 21.2129 26.2363 20.5156C26.1816 20.3242 25.4844 19.5859 22.0938 16.209C19.8516 13.9668 17.9785 12.1211 17.9375 12.0801C17.7734 12.0117 17.459 11.9844 17.2539 12.0391Z" fill="#E4E2DD"/>
</g>
</g>
</g>
</g>
</svg>
