<svg width="334" height="70" viewBox="0 0 334 70" fill="none" xmlns="http://www.w3.org/2000/svg">
<path d="M30.3397 31.97H17.0286L7.83594 1.40605V1.18542H17.4405L24.4564 25.6748H24.7211L30.2514 7.20113H40.5767L45.9599 25.6748H46.2247L53.52 1.18542H62.801V1.40605L53.1082 31.97H40.0766L35.3699 15.8938H35.1346L30.3397 31.97Z" fill="#E4E2DD"/>
<path d="M95.71 12.3638V1.18542H104.991V31.97H95.71V20.2474H76.2067V31.97H66.9258V1.18542H76.2067V12.3638H95.71Z" fill="#E4E2DD"/>
<path d="M149.631 30.97H113.963V0.185425H148.955V7.70138H123.244V12.4081H141.983V18.7473H123.244V23.454H149.631V30.97Z" fill="#E4E2DD"/>
<path d="M175.974 31.97H166.693V9.01026H151.72V1.18542H190.962V9.01026H175.974V31.97Z" fill="#E4E2DD"/>
<path d="M224.102 12.3638V1.18542H233.383V31.97H224.102V20.2474H204.598V31.97H195.317V1.18542H204.598V12.3638H224.102Z" fill="#E4E2DD"/>
<path d="M278.023 31.97H242.355V1.18542H277.346V8.70138H251.636V13.4081H270.375V19.7473H251.636V24.454H278.023V31.97Z" fill="#E4E2DD"/>
<path d="M322.883 31.7493V31.97H310.94L299.659 21.2917H294.011V31.97H284.73V1.18542H309.719C314.091 1.18542 317.302 2.0238 319.353 3.70055C321.413 5.3773 322.442 7.88875 322.442 11.2312C322.442 14.342 321.552 16.7321 319.78 18.4089C318.015 20.0856 315.264 21.0343 311.529 21.2476L322.883 31.7493ZM312.661 8.33367H294.011V14.8053H312.661V8.33367Z" fill="#E4E2DD"/>
<path d="M21.919 69.4027C14.0133 69.4027 7.1004 69.0534 1.1803 68.3584L0.871421 60.1218C6.81359 60.9087 11.5497 61.4234 15.0797 61.6661C18.6097 61.8721 22.7758 62.0559 27.5818 62.2103V57.2242L11.1378 55.9593C7.46075 55.6578 4.74339 54.7606 2.98942 53.2677C1.24281 51.7785 0.371338 49.5979 0.371338 46.7225C0.371338 43.4388 1.56271 41.0267 3.94546 39.486C6.32821 37.9489 10.0825 37.1768 15.212 37.1768C20.5843 37.1768 27.2435 37.493 35.186 38.1181L35.4507 46.3695C29.6262 45.5862 24.3312 45.042 19.5657 44.7368C16.3667 44.5236 13.2154 44.3985 10.1083 44.3691V49.2082L25.6844 50.4437C29.6924 50.7673 32.6341 51.6718 34.5094 53.15C36.381 54.6319 37.3187 56.8675 37.3187 59.857C37.3187 63.0855 36.131 65.4829 33.7593 67.0494C31.3839 68.6195 27.4383 69.4027 21.919 69.4027Z" fill="#E4E2DD"/>
<path d="M60.763 68.682H47.452L38.2593 38.1181V37.8975H47.8638L54.8797 62.3868H55.1444L60.6748 43.9132H71L76.3833 62.3868H76.648L83.9434 37.8975H93.2243V38.1181L83.5315 68.682H70.4999L65.7933 52.6058H65.5579L60.763 68.682Z" fill="#E4E2DD"/>
<path d="M133.017 68.682H97.3491V37.8975H132.34V45.4134H106.63V50.1201H125.368V56.4594H106.63V61.166H133.017V68.682Z" fill="#E4E2DD"/>
<path d="M149.314 37.8975H162.757L177.568 68.4614V68.682H167.464L164.669 62.6222H147.284L144.475 68.682H134.605V68.4614L149.314 37.8975ZM155.873 44.1926L150.49 55.7828H161.492L156.109 44.1926H155.873Z" fill="#E4E2DD"/>
<path d="M201.1 68.682H191.819V45.7223H176.846V37.8975H216.088V45.7223H201.1V68.682Z" fill="#E4E2DD"/>
<path d="M256.112 68.682H220.444V37.8975H255.435V45.4134H229.725V50.1201H248.463V56.4594H229.725V61.166H256.112V68.682Z" fill="#E4E2DD"/>
<path d="M300.972 68.4614V68.682H289.029L277.748 58.0038H272.1V68.682H262.819V37.8975H287.808C292.18 37.8975 295.39 38.7358 297.442 40.4126C299.501 42.0893 300.531 44.6008 300.531 47.9433C300.531 51.0541 299.641 53.4442 297.869 55.1209C296.104 56.7977 293.353 57.7464 289.617 57.9596L300.972 68.4614ZM290.75 45.0457H272.1V51.5174H290.75V45.0457Z" fill="#E4E2DD"/>
<path d="M321.898 36.0883C326.083 36.0883 329.142 36.8458 331.076 38.3534C333.007 39.8647 333.974 42.0967 333.974 45.0457C333.974 47.8918 333.143 50.0539 331.488 51.5321C329.83 53.0029 327.388 53.8928 324.163 54.1943L320.486 54.5179V58.4009H312.617V49.3994L325.193 48.3992V42.9277C322.417 42.9277 318.975 43.0968 314.868 43.4278C310.768 43.7514 306.83 44.1742 303.057 44.6927L303.38 36.8532C309.683 36.3457 315.857 36.0883 321.898 36.0883ZM321.163 68.682H311.926V62.4751H321.163V68.682Z" fill="#E4E2DD"/>
</svg>
